<?xml version="1.0" standalone="no"?>
<!DOCTYPE svg PUBLIC "-//W3C//DTD SVG 1.1//EN" "http://www.w3.org/Graphics/SVG/1.1/DTD/svg11.dtd" >
<!--
2013-9-30: Created.
-->
<svg>
<metadata>
Created by iconfont
</metadata>
<defs>

<font id="sumscope-icon" horiz-adv-x="1024" >
  <font-face
    font-family="sumscope-icon"
    font-weight="500"
    font-stretch="normal"
    units-per-em="1024"
    ascent="896"
    descent="-128"
  />
    <missing-glyph />
    
    <glyph glyph-name="x" unicode="x" horiz-adv-x="1001"
d="M281 543q-27 -1 -53 -1h-83q-18 0 -36.5 -6t-32.5 -18.5t-23 -32t-9 -45.5v-76h912v41q0 16 -0.5 30t-0.5 18q0 13 -5 29t-17 29.5t-31.5 22.5t-49.5 9h-133v-97h-438v97zM955 310v-52q0 -23 0.5 -52t0.5 -58t-10.5 -47.5t-26 -30t-33 -16t-31.5 -4.5q-14 -1 -29.5 -0.5
t-29.5 0.5h-32l-45 128h-439l-44 -128h-29h-34q-20 0 -45 1q-25 0 -41 9.5t-25.5 23t-13.5 29.5t-4 30v167h911zM163 247q-12 0 -21 -8.5t-9 -21.5t9 -21.5t21 -8.5q13 0 22 8.5t9 21.5t-9 21.5t-22 8.5zM316 123q-8 -26 -14 -48q-5 -19 -10.5 -37t-7.5 -25t-3 -15t1 -14.5
t9.5 -10.5t21.5 -4h37h67h81h80h64h36q23 0 34 12t2 38q-5 13 -9.5 30.5t-9.5 34.5q-5 19 -11 39h-368zM336 498v228q0 11 2.5 23t10 21.5t20.5 15.5t34 6h188q31 0 51.5 -14.5t20.5 -52.5v-227h-327z" />
    

    
    <glyph glyph-name="android" unicode="&#59214;" d="M887.964753 575.03809q-26.013561 0-44.507827-18.494266T824.96266 512.035997v-246.984846q0-27.005468 18.494266-45.499734t43.995875-18.494266 43.995876 18.494266 18.494266 45.499734V512.035997q0 26.013561-18.014311 44.507827t-43.995876 18.494266z m-751.417554 0q-25.501609 0-43.995876-18.494266T74.057057 512.035997v-246.984846q0-27.005468 18.494266-45.499734t43.995876-18.494266 43.995875 18.494266 18.494266 45.499734V512.035997q0 26.013561-18.494266 44.507827t-43.995875 18.494266z m99.478674-2.015811v-451.957629q0-19.998125 14.494641-34.012811t34.492766-14.014686h55.002843v-138.003062q0-26.013561 18.494267-44.507828t43.995875-18.494266 43.995875 18.494266 18.494267 44.507828V73.037153h96.982907v-138.003062q0-26.013561 18.014312-44.507828t43.995875-18.494266 43.995875 18.494266 18.014312 44.507828V73.037153h55.99475q19.998125 0 34.012811 14.014686t14.014686 35.004718V573.022279H236.05787z m406.969846 233.994063L694.990845 882.017311q4.991532 7.99925-2.015811 12.990782t-12.990783-3.007718l-52.987032-78.008687Q571.994376 836.005624 512 836.005624t-114.997219-22.013936L344.015749 890.976471q-6.015436 8.991157-12.990783 3.007718-7.007343-3.999625-2.015811-12.990782l51.995126-74.009062q-62.010187-28.989282-101.494485-79.9925T235.001969 612.986533h553.964065q-4.991532 63.002094-44.507827 114.005312t-101.494485 79.9925z m-247.976752-117.01303q-12.990782 0-22.013936 8.991157t-8.991157 22.013936 8.991157 22.013937 22.013936 8.991157 22.013936-8.991157 8.991157-22.013937-8.991157-22.013936-22.013936-8.991157z m237.481736 0q-12.510827 0-21.501984 8.991157t-8.991157 22.013936 8.991157 22.013937 21.501984 8.991157 21.501984-8.991157 8.991157-22.013937-8.991157-22.013936-21.501984-8.991157z"  horiz-adv-x="1024" />

    
    <glyph glyph-name="android-o" unicode="&#59215;" d="M888.394377 601.532021q-24.504342 24.504342-60.493096 24.504343-6.014121 0-12.987941-0.99169v0.99169h-3.998751Q801.925398 679.011809 767.920025 726.005123q-31.990003 43.986254-80.966698 73.992878l28.982943 40.979194V846.991315l0.99169 2.01537q0.99169 7.005811 0.99169 10.012871 0 15.995002-10.012871 26.487723t-26.007872 10.492721q-18.010372 0-30.006623-18.010372l-32.981694-47.985004q-52.975445 18.010372-106.97457 18.010371t-106.97457-18.010371l-32.981694 47.985004q-11.996251 18.010372-30.006623 18.010372-15.995002 0-26.007872-10.492721t-10.012871-26.487723q0-11.004561 7.005811-19.002061l26.007872-36.980444q-50.000375-30.006623-81.990378-74.984567-34.005373-46.993315-42.002874-99.96876h-6.014121v-0.99169q-6.014121 0.99169-11.996251 0.99169-36.980444 0-60.972946-23.992503t-23.992502-59.981255v-268.907967q0-35.988754 23.992502-60.493096t59.981256-24.504342q6.014121 0 12.987941 0.99169v-106.97457q0-24.984192 17.498532-42.482724t42.482724-17.498532h36.980444v-66.987067q0-35.988754 23.992502-59.981256 23.992502-24.984192 60.493096-24.984192t60.493096 23.992502q23.992502 24.984192 23.992502 60.972946V23.248735h72.969198v-65.995377q0-35.988754 24.984192-59.981256 23.992502-24.984192 59.981256-24.984192t60.972946 24.984192q23.992502 23.992502 23.992502 59.981256v66.987067h35.988754q24.984192 0 42.994564 17.498532t18.010372 42.482724v104.9592q6.014121-0.99169 11.996251-0.99169 35.988754 0 60.972946 23.992502 23.992502 24.984192 23.992502 60.972946v267.916276q0.99169 35.988754-23.480662 60.493096zM209.08666 272.130959q0-11.996251-11.996251-11.996251t-11.996251 11.996251v268.907966q0 11.996251 11.996251 11.996252t11.996251-11.996252V272.130959z m148.977445 453.842174q65.995376 47.985005 153.967885 47.985005t153.967885-47.985005q55.982505-42.002874 70.985817-99.968759H287.110278q15.003311 57.997876 70.985817 99.968759z m44.977944-770.735145q-0.99169-10.012871-11.996251-10.012871-11.996251 0-11.996251 11.996251V24.208435h23.992502v-68.970447z m242.932084 0q-2.01537-10.012871-11.996251-10.012871-12.987941 0-12.987941 11.996251V24.208435h24.984192v-68.970447zM742.935833 96.185942H282.087848V553.035177h460.847985V96.185942z m96.961699 175.945017q0-11.996251-12.508091-11.996251t-12.508091 11.996251v268.907966q0 11.996251 12.508091 11.996252t12.508091-11.996252V272.130959zM584.969197 711.993502q-15.995002 0-26.007872-10.492721t-10.012871-26.487723 10.012871-26.007872 26.007872-10.012871 26.487723 10.012871 10.012871 26.007872-10.492721 26.487723-26.007873 10.492721z m-145.458544 0q-15.483162 0-26.007873-10.492721t-10.492721-26.487723 10.492721-26.007872 26.007873-10.012871 26.007872 10.012871 10.492721 26.007872-10.492721 26.487723-26.007872 10.492721z"  horiz-adv-x="1024" />

    
    <glyph glyph-name="apple-o" unicode="&#59216;" d="M698.016 576.992h12l2.016-0.992q30.016-0.992 59.008-12.992 12.992-4.992 24.992-12-4-4.992-10.016-11.008-30.016-36.992-46.016-79.008-20.992-52-20.992-110.016 0.992-124.992 88-210.016 16-15.008 32.992-27.008-18.016-40-42.016-74.016-36.992-55.008-58.016-74.016-20.992-20-40-20.992h-2.016q-16.992 0-47.008 14.016-64 27.008-119.008 27.008-56 0-122.016-28-31.008-12.992-48-14.016h-0.992q-15.008 0-38.016 22.016t-60.992 76.992q-66.016 95.008-88 218.016-11.008 64.992-4.992 120 7.008 56.992 31.008 100.992 24.992 42.016 64.992 67.008 40.992 24 86.016 24.992h0.992q23.008 0 76.992-20.992 58.016-24 90.016-24 28.992 0 87.008 23.008 63.008 24.992 92 24.992z m0 72q-40.992 0-103.008-24t-76-24q-16.992 0-74.016 22.496T352 645.984h-2.016q-64.992-0.992-121.504-35.488t-90.496-92.512q-32-56.992-40-128.512t5.504-141.504 39.488-133.504 60-112.512q20-28.992 34.016-47.488t35.008-40 43.488-32 45.504-10.496h3.008q30.016 0.992 78.496 21.504t89.504 20.512q40 0 87.008-20.512t79.008-20.512h3.008q24.992 0.992 47.008 11.008t42.496 30.496 33.504 37.504 34.016 47.008q44 64 71.008 146.016-8 3.008-17.504 8t-32.992 22.496-40.512 38.496-31.488 58.016-15.488 80q0 36 12 70.016t24.512 53.504 34.016 39.008 26.016 23.008 14.496 9.504q-20.992 31.008-48.992 52.512t-55.488 31.008-46.496 13.504-36 4q-8.992 0.992-16.992 0.992zM716 896q-39.008-2.016-80.992-23.488t-70.016-54.496q-27.008-30.016-41.504-72.992t-9.504-84.992q40.992-3.008 80.512 17.504t68.512 55.488q28 34.016 43.008 76.992t10.016 86.016z"  horiz-adv-x="1024" />

    
    <glyph glyph-name="api" unicode="&#59217;" d="M952 721.984l-183.008 106.016Q760.992 832 752.48 832t-15.488-4l-183.008-106.016q-16-8.992-16-27.008v-8.992l-10.016 6.016q-7.008 4-15.488 4t-16.512-4l-10.016-6.016v8.992q0 18.016-16 27.008L286.944 828Q278.944 832 270.944 832t-16-4L71.936 721.984q-16-8.992-16-27.008v-212q0-18.016 16-27.008l183.008-106.016q8-4 16-4t16 4l10.016 6.016v-8.992q0-18.016 16-27.008l6.016-4-6.016-4q-16-8.992-16-27.008v-212q0-18.016 16-27.008l183.008-106.016q8-4 16-4t16 4l183.008 106.016q16 8.992 16 27.008v212q0 18.016-16 27.008l-6.016 4 6.016 4q16 8.992 16 27.008v8.992l10.016-6.016q7.008-4 15.488-4t16.512 4l183.008 106.016q16 8.992 16 27.008V694.976q0 18.016-16 27.008zM271.008 424L128 506.016V672.032l143.008 82.016 143.008-82.016v-28L313.024 586.016q-16-8.992-16-27.008v-120z m143.008 167.008v-84.992l-71.008-40v84z m240.992-330.016V96L512 13.984 368.992 96v164.992l23.008 12.992 104-60q8-4 16-4t16 4l104 60z m-216.992 40l74.016 43.008 74.016-43.008-74.016-43.008z m242.976 54.016l-23.008-12.992-130.016 76q-8 4-16 4t-16-4l-130.016-76-23.008 12.992v28l127.008 72.992q16 8.992 16 27.008V633.024l26.016 15.008 26.016-15.008v-150.016q0-18.016 16-27.008l127.008-74.016v-27.008z m0 110.976l-71.008 40V592l71.008-40.992v-84.992zM896 505.984l-143.008-82.016-26.016 15.008v120q0 18.016-16 27.008l-100.992 58.016V672l143.008 82.016L896 672v-166.016z"  horiz-adv-x="1024" />

    
    <glyph glyph-name="apple" unicode="&#59218;" d="M902.015878 547.008109q-20.991993 31.00799-48.991985 52.511984t-55.487982 31.00799-46.495986 13.503996-35.999988 3.999998q-35.007989 3.999999-75.007977-7.487997t-72.991977-24.991992-47.999985-13.503996q-16.991995 0-75.007977 22.495993t-94.01597 21.503993q-64.99198-0.992-121.503962-35.487989t-90.495972-92.511971q-31.99999-55.999983-39.999988-127.99996t5.503999-142.015956 39.487987-133.503958 59.999982-112.511965q19.999994-30.015991 34.495989-47.999985t35.999989-39.999987 44.511986-32.51199 47.007985-9.503997q28.991991 0.992 77.503976 21.503993t89.503972 20.511994q39.999988 0 87.999972-20.511994t80.991975-20.511993q24.991992 0.992 47.007985 11.007996t42.495987 30.495991 34.015989 37.503988 33.50399 47.007985q43.999986 63.99998 71.007978 146.015955-7.999998 3.007999-17.503995 7.999997t-32.99199 22.495993-40.511987 38.495988-31.48799 58.015982-14.495996 79.999975q-0.992 35.999989 11.007997 70.015978t24.511992 53.503983 34.01599 39.007988 26.495991 23.007993 14.015996 9.503997zM715.999936 896q-39.007988-2.015999-80.991974-23.487993t-70.015979-54.495983q-27.007992-30.015991-41.503987-72.991977t-9.503997-84.991973q40.991987-3.007999 80.511975 17.503994t68.511979 55.487983q27.999991 34.015989 43.007986 76.991976t10.015997 86.015973z"  horiz-adv-x="1024" />

    
    <glyph glyph-name="arrow-down" unicode="&#59219;" d="M558.016 724.992v-574.016l208 216q12.992 14.016 31.008 14.016t31.488-12.512 13.504-30.496-12-32l-284-294.016q-12.992-14.016-31.488-14.016t-31.488 14.016l-284.992 296q-12 12.992-12 30.016 0 19.008 14.016 32 12.992 12.992 31.008 12.512t31.008-13.504l208-216V725.984q0 16.992 12 30.016t28.992 14.016q19.008 0.992 32.992-12.512t14.016-32.512z"  horiz-adv-x="1024" />

    
    <glyph glyph-name="area-chart" unicode="&#59220;" d="M923.008-64H99.008q-15.008 0-25.504 10.496t-10.496 25.504V796.992q0 15.008 10.496 25.504t25.504 10.496 25.504-10.496 10.496-25.504V8h788q15.008 0 25.504-10.496t10.496-25.504-10.496-25.504-25.504-10.496zM192 96l116.992 208.992q4 7.008 12 9.504t16-0.512L448 261.984l118.016 171.008q11.008 15.008 27.008 7.008L703.04 384l160 251.008q7.008 11.008 19.488 7.488t12.512-16.512v-520q0-16-11.488-27.488t-27.488-11.488H210.048q-11.008 0-16.992 9.504T192.064 96z"  horiz-adv-x="1024" />

    
    <glyph glyph-name="appstore-o" unicode="&#59221;" d="M398.016 760v-262.016H136V760h262.016z m0 72H136q-30.016 0-51.008-20.992T64 760v-262.016q0-30.016 20.992-51.008t51.008-20.992h262.016q30.016 0 51.008 20.992t20.992 51.008V760q0 30.016-20.992 51.008T398.016 832zM888 760v-262.016h-262.016V760h262.016z m0 72h-262.016q-30.016 0-51.008-20.992t-20.992-51.008v-262.016q0-30.016 20.992-51.008t51.008-20.992h262.016q30.016 0 51.008 20.992T960 497.984V760q0 30.016-20.992 51.008T888 832zM398.016 269.984v-262.016H136v262.016h262.016z m0 72H136q-30.016 0-51.008-20.992T64 269.984v-262.016q0-30.016 20.992-51.008t51.008-20.992h262.016q30.016 0 51.008 20.992t20.992 51.008v262.016q0 30.016-20.992 51.008t-51.008 20.992z m489.984-72v-262.016h-262.016v262.016h262.016z m0 72h-262.016q-30.016 0-51.008-20.992t-20.992-51.008v-262.016q0-30.016 20.992-51.008t51.008-20.992h262.016q30.016 0 51.008 20.992T960 7.968v262.016q0 30.016-20.992 51.008t-51.008 20.992z"  horiz-adv-x="1024" />

    
    <glyph glyph-name="appstore" unicode="&#59222;" d="M398.016 832H136q-30.016 0-51.008-20.992T64 760v-262.016q0-30.016 20.992-51.008t51.008-20.992h262.016q30.016 0 51.008 20.992t20.992 51.008V760q0 30.016-20.992 51.008T398.016 832zM888 832h-262.016q-30.016 0-51.008-20.992t-20.992-51.008v-262.016q0-30.016 20.992-51.008t51.008-20.992h262.016q30.016 0 51.008 20.992T960 497.984V760q0 30.016-20.992 51.008T888 832zM398.016 341.984H136q-30.016 0-51.008-20.992T64 269.984v-262.016q0-30.016 20.992-51.008t51.008-20.992h262.016q30.016 0 51.008 20.992t20.992 51.008v262.016q0 30.016-20.992 51.008t-51.008 20.992z m489.984 0h-262.016q-30.016 0-51.008-20.992t-20.992-51.008v-262.016q0-30.016 20.992-51.008t51.008-20.992h262.016q30.016 0 51.008 20.992T960 7.968v262.016q0 30.016-20.992 51.008t-51.008 20.992z"  horiz-adv-x="1024" />

    
    <glyph glyph-name="backward" unicode="&#59223;" d="M448.992 789.984L12.992 413.984Q0 402.976 0 384.992t12.992-30.016l436-376.992q18.016-16.992 40.512-6.496T512 8V760q0 26.016-22.496 36.512t-40.512-6.496z m512 0l-436-376q-12.992-11.008-12.992-28.992t12.992-30.016l436-376.992q18.016-16.992 40.512-6.496T1024 8V760q0 26.016-22.496 36.512t-40.512-6.496z"  horiz-adv-x="1024" />

    
    <glyph glyph-name="arrow-right" unicode="&#59224;" d="M172.992 428h574.016l-216 208q-14.016 12.992-14.016 31.008t12.512 31.488 30.496 13.504 32-12L886.016 416q14.016-12.992 14.016-31.488t-14.016-31.488l-296-284.992q-12.992-12-30.016-12-19.008 0-32 14.016-12.992 12.992-12.512 31.008t13.504 31.008l216 208H172q-16.992 0-30.016 12t-14.016 28.992q-0.992 19.008 12.512 32.992t32.512 14.016z"  horiz-adv-x="1024" />

    
    <glyph glyph-name="arrow-up" unicode="&#59225;" d="M470.016 43.008V617.024l-208-216q-12.992-14.016-31.008-14.016t-31.488 12.512-13.504 30.496 12 32l284 294.016q12.992 14.016 31.488 14.016t31.488-14.016l284.992-296q12-12.992 12-30.016 0-19.008-14.016-32-12.992-12.992-31.008-12.512t-31.008 13.504l-208 216v-572.992q0-16.992-12-30.016t-28.992-14.016q-19.008-0.992-32.992 12.512t-14.016 32.512z"  horiz-adv-x="1024" />

    
    <glyph glyph-name="arrow-left" unicode="&#59226;" d="M855.008 428H280.992l216 208q14.016 12.992 14.016 31.008t-12.512 31.488-30.496 13.504-32-12L141.984 416q-14.016-12.992-14.016-31.488t14.016-31.488l296-284.992q12.992-12 30.016-12 19.008 0 32 14.016 12.992 12.992 12.512 31.008t-13.504 31.008l-216 208H856q16.992 0 30.016 12t14.016 28.992q0.992 19.008-12.512 32.992t-32.512 14.016z"  horiz-adv-x="1024" />

    
    <glyph glyph-name="arrows-alt" unicode="&#59227;" d="M430.016 23.008H219.008l232 232q12.992 12.992 12.992 31.488t-12.992 31.008-31.008 12.512-31.008-12l-236-236v208.992q0 18.016-12.992 31.008t-31.008 12.992-31.008-12.992-12.992-31.008v-312q0-18.016 12.992-31.008t31.008-12.992h320.992q18.016 0 31.008 12.992t12.992 31.008-12.992 31.008-31.008 12.992z m485.984 808H595.008q-18.016 0-31.008-12.992t-12.992-31.008 12.992-31.008 31.008-12.992h211.008l-232-232q-12.992-12.992-12.992-31.008t12.992-31.008 31.008-12.992 31.008 12.992l236 236v-210.016q0-18.016 12.992-31.008t31.008-12.992 31.008 12.992 12.992 31.008v312q0 18.016-12.992 31.008t-31.008 12.992z"  horiz-adv-x="1024" />

    
    <glyph glyph-name="bank" unicode="&#59228;" d="M940 419.008L537.984 820q-10.016 11.008-24.992 11.008t-26.016-11.008L85.984 419.008q-11.008-11.008-11.008-26.016t10.496-25.504 25.504-10.496 24.992 11.008L512.96 744 888.96 368q10.016-11.008 24.992-11.008t25.504 11.008 10.496 25.504-10.016 25.504z m-112-127.008q-15.008 0-25.504-10.496T792 256v-248H232V256q0 15.008-10.496 25.504t-25.504 10.496-25.504-10.496T160 256v-248q0-30.016 20.992-51.008T232-64h560q30.016 0 51.008 20.992T864 8V256q0 15.008-10.496 25.504t-25.504 10.496zM320 357.984v-4q0-14.016 10.016-24t24-10.016h122.016v-64h-90.016q-14.016 0-24-10.016t-10.016-24v-4q0-14.016 10.016-24t24-10.016h90.016v-84q0-15.008 10.496-25.504t25.504-10.496 25.504 10.496 10.496 25.504v84h90.016q14.016 0 24 10.016t10.016 24v4q0 14.016-10.016 24t-24 10.016h-90.016v64h122.016q14.016 0 24 10.016t10.016 24v4q0 14.016-10.016 24t-24 10.016H535.04q2.016 0.992 2.016 2.016l84.992 84.992q11.008 10.016 11.008 24.992t-10.496 25.504-25.504 10.496-26.016-10.016l-59.008-60-60 60q-10.016 10.016-24.992 10.016t-25.504-10.496-10.496-25.504 10.016-24.992l87.008-87.008h-134.016q-14.016 0-24-10.016t-10.016-24z"  horiz-adv-x="1024" />

    
    <glyph glyph-name="bar-chart" unicode="&#59229;" d="M923.008-64H99.008q-15.008 0-25.504 10.496t-10.496 25.504V796q0 15.008 10.496 25.504T99.008 832t25.504-10.496 10.496-25.504V8h788q15.008 0 25.504-10.496t10.496-25.504-10.496-25.504-25.504-10.496zM264 523.008q-28.992-0.992-50.016-22.016t-22.016-50.016q0-23.008 11.488-40.992t30.496-28v-284.992q0-12.992 9.504-22.496t22.496-9.504q12.992 0 22.496 9.504t9.504 22.496v284.992q19.008 8.992 30.496 27.008t11.488 40q0 31.008-22.496 52.992t-53.504 20.992z m278.016 117.984Q512 640 491.008 618.976t-20.992-50.016q-0.992-23.008 10.496-40.992t31.488-28V96.96q0-12.992 8.992-22.496t23.008-9.504q12.992 0 22.496 9.504T576 96.96V499.968q18.016 8.992 30.016 27.008t12 40q0 31.008-22.496 52.992t-53.504 20.992z m352.992-203.008q0 31.008-22.496 52.992t-53.504 20.992q-28.992-0.992-50.016-22.016t-22.016-50.016q0-23.008 11.488-40.992t30.496-28v-274.016q0-12.992 9.504-22.496t22.496-9.504q12.992 0 22.496 9.504t9.504 22.496v274.016q19.008 8.992 30.496 27.008t11.488 40z"  horiz-adv-x="1024" />

    
    <glyph glyph-name="bars-chart" unicode="&#59230;" d="M203.008 729.984v-696q0-15.008-10.496-25.504t-25.504-10.496q-15.008 0-25.504 10.496t-10.496 25.504V729.984q0 15.008 10.496 25.504t25.504 10.496q15.008 0 25.504-10.496t10.496-25.504zM167.008 69.984h694.016q15.008 0 25.504-10.496t10.496-25.504q0-15.008-10.496-25.504t-25.504-10.496H167.008q-15.008 0-25.504 10.496t-10.496 25.504q0 15.008 10.496 25.504t25.504 10.496z m227.008 467.008v-371.008q0-15.008-10.496-25.504t-25.504-10.496q-15.008 0-25.504 10.496t-10.496 25.504V536.992q0 15.008 10.496 25.504t25.504 10.496q15.008 0 25.504-10.496t10.496-25.504z m382.976 130.016v-500.992q0-15.008-10.496-25.504t-25.504-10.496q-15.008 0-25.504 10.496t-10.496 25.504V667.008q0 15.008 10.496 25.504t25.504 10.496q15.008 0 25.504-10.496t10.496-25.504z m-192-256v-244.992q0-15.008-10.496-25.504t-25.504-10.496q-15.008 0-25.504 10.496t-10.496 25.504v244.992q0 15.008 10.496 25.504t25.504 10.496q14.016 0 24.992-10.496t11.008-25.504z"  horiz-adv-x="1024" />

    
    <glyph glyph-name="bell" unicode="&#59231;" d="M860 64H832V512q0 123.008-82.016 214.016t-202.016 104v30.016q0 15.008-10.496 25.504t-25.504 10.496-25.504-10.496-10.496-25.504v-30.016q-120-12.992-202.016-104T191.936 512v-448h-28q-15.008 0-25.504-10.496t-10.496-25.504 10.496-25.504 25.504-10.496h276v-48q0-30.016 20.992-51.008t51.008-20.992 51.008 20.992 20.992 51.008v48h276q15.008 0 25.504 10.496t10.496 25.504-10.496 25.504-25.504 10.496z m-100 0H264V512q0 103.008 72.512 175.488T512 760t175.488-72.512T760 512v-448z"  horiz-adv-x="1024" />

    
    <glyph glyph-name="bars" unicode="&#59232;" d="M124 639.008q0 26.016 18.496 44.512t44.512 18.496 44.512-18.496 18.496-44.512-18.496-44.512T187.008 576t-44.512 18.496-18.496 44.512z m732-29.024H357.984q-15.008 0-25.504 10.496t-10.496 25.504q0 15.008 10.496 25.504t25.504 10.496H856q15.008 0 25.504-10.496t10.496-25.504q0-15.008-10.496-25.504t-25.504-10.496zM124 384q0 26.016 18.496 44.512t44.512 18.496 44.512-18.496T250.016 384t-18.496-44.512-44.512-18.496-44.512 18.496T124 384z m732-28.992H357.984q-15.008 0-25.504 10.496t-10.496 25.504q0 15.008 10.496 25.504t25.504 10.496H856q15.008 0 25.504-10.496t10.496-25.504q0-15.008-10.496-25.504t-25.504-10.496zM124 128.992q0 26.016 18.496 44.512T187.008 192t44.512-18.496 18.496-44.512-18.496-44.512-44.512-18.496-44.512 18.496-18.496 44.512z m732-28.992H357.984q-15.008 0-25.504 10.496t-10.496 25.504q0 15.008 10.496 25.504t25.504 10.496H856q15.008 0 25.504-10.496t10.496-25.504q0-15.008-10.496-25.504t-25.504-10.496z"  horiz-adv-x="1024" />

    
    <glyph glyph-name="barcode" unicode="&#59233;" d="M706.016 128h70.016q0.992 0 0.992 0.992V767.008q0 0.992-0.992 0.992h-70.016q-0.992 0-0.992-0.992v-638.016q0-0.992 0.992-0.992z m-172-56H464q-0.992 0-0.992-0.992v-70.016q0-0.992 0.992-0.992h70.016q0.992 0 0.992 0.992v70.016q0 0.992-0.992 0.992z m105.984 0h-70.016q-0.992 0-0.992-0.992v-70.016q0-0.992 0.992-0.992H640q0.992 0 0.992 0.992v70.016q0 0.992-0.992 0.992z m-212 0H213.984q-0.992 0-0.992-0.992v-70.016q0-0.992 0.992-0.992h214.016q0.992 0 0.992 0.992v70.016q0 0.992-0.992 0.992zM670.016 768h-34.016q-0.992 0-0.992-0.992v-638.016q0-0.992 0.992-0.992h34.016q0.992 0 0.992 0.992V767.008q0 0.992-0.992 0.992z m-457.024-0.992Q212.992 768 212 768H177.984q-0.992 0-0.992-0.992v-638.016q0-0.992 0.992-0.992h34.016q0.992 0 0.992 0.992V767.008zM1023.008 768h-70.016q-0.992 0-0.992-0.992v-766.016q0-0.992 0.992-0.992h70.016Q1024 0 1024 0.992V767.008Q1024 768 1023.008 768z m-107.008-696h-240q-0.992 0-0.992-0.992v-70.016q0-0.992 0.992-0.992h240q0.992 0 0.992 0.992v70.016q0 0.992-0.992 0.992z m0 696h-34.016q-0.992 0-0.992-0.992v-638.016q0-0.992 0.992-0.992h34.016q0.992 0 0.992 0.992V767.008q0 0.992-0.992 0.992zM108 128h34.016q0.992 0 0.992 0.992V767.008Q143.008 768 142.016 768H108q-0.992 0-0.992-0.992v-638.016q0-0.992 0.992-0.992z m246.016 0h34.016q0.992 0 0.992 0.992V767.008q0 0.992-0.992 0.992h-34.016q-0.992 0-0.992-0.992v-638.016q0-0.992 0.992-0.992z m69.984 0h70.016q0.992 0 0.992 0.992V767.008q0 0.992-0.992 0.992H424q-0.992 0-0.992-0.992v-638.016q0-0.992 0.992-0.992z m106.016 0h70.016q0.992 0 0.992 0.992V767.008q0 0.992-0.992 0.992h-70.016q-0.992 0-0.992-0.992v-638.016q0-0.992 0.992-0.992z m281.984 0h34.016q0.992 0 0.992 0.992V767.008q0 0.992-0.992 0.992h-34.016q-0.992 0-0.992-0.992v-638.016q0-0.992 0.992-0.992zM71.008 768H0.992Q0 768 0 767.008v-766.016Q0 0 0.992 0h70.016q0.992 0 0.992 0.992V767.008Q72 768 71.008 768z m107.008-696H108q-0.992 0-0.992-0.992v-70.016q0-0.992 0.992-0.992h70.016q0.992 0 0.992 0.992v70.016q0 0.992-0.992 0.992zM248 128h70.016q0.992 0 0.992 0.992V767.008Q319.008 768 318.016 768H248q-0.992 0-0.992-0.992v-638.016q0-0.992 0.992-0.992z"  horiz-adv-x="1024" />

    
    <glyph glyph-name="bulb" unicode="&#59234;" d="M640-56h-256q-15.008 0-25.504-10.496t-10.496-25.504 10.496-25.504T384-128h256q15.008 0 25.504 10.496t10.496 25.504-10.496 25.504T640-56z m256 577.984q0 155.008-112.512 264.512T512 896 240.512 786.496 128 521.984q0-102.016 52-188.512T320 197.984v-62.016q0-30.016 20.992-51.008t51.008-20.992h240q30.016 0 51.008 20.992T704 135.968v62.016q88 48.992 140 135.488T896 521.984z m-163.008-212.992q-43.008-42.016-99.008-64.992l-2.016-0.992v-107.008h-240v107.008l-2.016 0.992q-56 23.008-99.008 64.992t-67.008 96q-24 56-24 116.992t24 116.992q24 54.016 67.008 96t99.008 64.992q58.016 24 122.016 24t122.016-24q56-23.008 99.008-64.992t67.008-96q24-56 24-116.992T800 404.992q-24-54.016-67.008-96z"  horiz-adv-x="1024" />

    
    <glyph glyph-name="book" unicode="&#59235;" d="M822.016 832H204q-28.992 0-50.496-20.992T132 760v-752.992q0-28.992 21.504-50.496t50.496-21.504h619.008q28.992 0 50.496 21.504t21.504 50.496V760q0 30.016-21.504 51.008T822.016 832zM491.008 760v-208.992l-8.992 8-32.992 34.016q-8 7.008-18.016 7.008t-16.992-7.008l-44-44V760.032h120.992z m-192.992 0v-276.992q0-15.008 10.016-24.992t24.992-10.016q36.992 0 63.008 24.992l35.008 35.008 35.008-34.016q24.992-24.992 60-26.016h0.992q15.008 0 25.504 10.016t10.496 24.992V759.968h260v-624H205.024v624h92.992zM204 7.008V64h618.016v-56.992H204z"  horiz-adv-x="1024" />

    
    <glyph glyph-name="calculator" unicode="&#59236;" d="M856.992 832H168q-16 0-27.488-11.488t-11.488-27.488v-818.016q0-16 11.488-27.488t27.488-11.488h688.992q16 0 27.008 11.488t11.008 27.488V793.024q0 16-11.008 27.488T856.992 832z m-38.976-818.016H206.016V753.984h612v-740zM324 409.984h376.992q16 0 27.488 11.488t11.488 27.488V633.952q0 16-11.488 27.488t-27.488 11.488H324q-16 0-27.488-11.488t-11.488-27.488v-184.992q0-16 11.488-27.488t27.488-11.488z m38.016 185.024h300v-108h-300V595.008zM292.992 188.992h23.008v-23.008q0-16 11.488-27.488t27.488-11.488 27.488 11.488 11.488 27.488v23.008h23.008q16 0 27.488 11.488t11.488 27.488-11.488 27.008-27.488 11.008h-23.008v24q0 16-11.488 27.008t-27.488 11.008-27.488-11.008-11.488-27.008v-24h-23.008q-16 0-27.488-11.008t-11.488-27.008 11.488-27.488 27.488-11.488z m314.016 139.008q-16 0-27.488-11.008t-11.488-27.008 11.488-27.488 27.488-11.488h124q16 0 27.488 11.488t11.488 27.488-11.488 27.008-27.488 11.008h-124z m124-166.016h-124q-16 0-27.488-11.488t-11.488-27.488 11.488-27.488 27.488-11.488h124q16 0 27.488 11.488t11.488 27.488-11.488 27.488-27.488 11.488z"  horiz-adv-x="1024" />

    
    <glyph glyph-name="calendar" unicode="&#59237;" d="M888 768H768v28q0 15.008-10.496 25.504T732 832t-25.504-10.496-10.496-25.504V768h-368v28q0 15.008-10.496 25.504T292 832t-25.504-10.496T256 796V768H136q-30.016 0-51.008-20.992T64 696v-688q0-30.016 20.992-51.008T136-64h752q30.016 0 51.008 20.992T960 8V696q0 30.016-20.992 51.008T888 768zM136 696H256v-20q0-15.008 10.496-25.504T292 640t25.504 10.496 10.496 25.504V696h368v-20q0-15.008 10.496-25.504t25.504-10.496 25.504 10.496 10.496 25.504V696h120v-112H136v112z m752-688H136V512h752v-504zM288 384h64q12.992 0 22.496-9.504T384 352t-9.504-22.496T352 320H288q-12.992 0-22.496 9.504T256 352t9.504 22.496T288 384z m192 0h64q12.992 0 22.496-9.504T576 352t-9.504-22.496T544 320h-64q-12.992 0-22.496 9.504T448 352t9.504 22.496T480 384z m192 0h64q12.992 0 22.496-9.504T768 352t-9.504-22.496T736 320h-64q-12.992 0-22.496 9.504T640 352t9.504 22.496T672 384zM288 189.984h64q12.992 0 22.496-9.504t9.504-22.496-9.504-22.496-22.496-9.504H288q-12.992 0-22.496 9.504T256 157.984t9.504 22.496 22.496 9.504z m192 0h64q12.992 0 22.496-9.504t9.504-22.496-9.504-22.496-22.496-9.504h-64q-12.992 0-22.496 9.504T448 157.984t9.504 22.496 22.496 9.504z"  horiz-adv-x="1024" />

    
    <glyph glyph-name="camera-o" unicode="&#59238;" d="M511.008 164q72 0 123.008 51.008t51.008 123.008-51.008 123.008-123.008 51.008-123.008-51.008-51.008-123.008 51.008-123.008 123.008-51.008z m-72 245.984q30.016 30.016 72.512 30.016t72.512-30.016 30.016-72.512-30.016-72.512-72.512-30.016-72.512 30.016-30.016 72.512 30.016 72.512z m460 249.024h-168l-94.016 100h-0.992q-10.016 10.016-26.016 10.016h-196q-16 0-27.008-10.016L292.96 659.008h-168q-26.016 0-44.512-18.496t-18.496-44.512V64q0-26.016 18.496-44.512t44.512-18.496L898.976 0q26.016 0 44.512 19.008T961.984 64V596q0 26.016-18.496 44.512t-44.512 18.496zM428 696h168l35.008-36.992h-238.016z m452.992-615.008H141.984V577.984h739.008v-496.992z"  horiz-adv-x="1024" />

    
    <glyph glyph-name="camera" unicode="&#59239;" d="M899.008 659.008h-168l-94.016 100h-0.992q-10.016 10.016-26.016 10.016h-196q-16 0-27.008-10.016L292.96 659.008h-168q-26.016 0-44.512-18.496t-18.496-44.512V64q0-26.016 18.496-44.512t44.512-18.496L898.976 0q26.016 0 44.512 19.008T961.984 64V596q0 26.016-18.496 44.512t-44.512 18.496zM428 696h168l35.008-36.992h-238.016z m83.008-532q-72 0-123.008 51.008t-51.008 123.008 51.008 123.008 123.008 51.008 123.008-51.008 51.008-123.008-51.008-123.008-123.008-51.008z m0 276q-42.016 0-72-30.016t-30.016-72.512 30.016-72.512 72.512-30.016 72.512 30.016 30.016 72.512-30.016 72.512-72.992 30.016z"  horiz-adv-x="1024" />

    
    <glyph glyph-name="caret-down" unicode="&#59240;" d="M76 504l403.008-488.992q12.992-15.008 32-15.008t32 15.008L948 504q18.016 20 7.008 44.992t-39.008 24.992H108q-28 0-39.008-24.992t7.008-44.992z"  horiz-adv-x="1024" />

    
    <glyph glyph-name="caret-right" unicode="&#59241;" d="M392.992 820l488.992-403.008q14.016-12.992 14.016-32t-14.016-32L392.992-52q-20.992-18.016-46.016-7.008t-24.992 39.008V788q0 28 24.992 39.008t46.016-7.008z"  horiz-adv-x="1024" />

    
    <glyph glyph-name="caret-left" unicode="&#59242;" d="M631.008 820L142.016 416.992q-14.016-12.992-14.016-32t14.016-32l488.992-404.992q20.992-18.016 46.016-7.008t24.992 39.008V788q0 28-24.992 39.008t-46.016-7.008z"  horiz-adv-x="1024" />

    
    <glyph glyph-name="caret-up" unicode="&#59243;" d="M76 263.008L480.992 752q12.992 14.016 32 14.016t32-14.016l403.008-488.992q18.016-20 7.008-45.504T916 192H108q-28 0-39.008 25.504t7.008 45.504z"  horiz-adv-x="1024" />

    
    <glyph glyph-name="check-circle-o" unicode="&#59244;" d="M720.992 589.984l-327.008-328-86.016 148.992q-7.008 12.992-21.504 16.992t-27.488-3.488-16.992-21.504 4-27.008l108.992-191.008q10.016-18.016 31.008-18.016 10.016 0 18.016 4.992 4.992 3.008 8 6.016l0.992 0.992 359.008 360q11.008 11.008 11.008 26.016t-10.496 25.504-25.504 10.496-26.016-11.008zM512 896q-139.008 0-256.992-68.512T68.512 640.992 0 384t68.512-256.992 186.496-186.496T512-128t256.992 68.512 186.496 186.496T1024 384t-68.512 256.992-186.496 186.496T512 896z m311.008-823.008q-60.992-60.992-140-94.016-80.992-35.008-171.008-35.008t-171.008 34.016q-79.008 34.016-140 95.008t-94.016 140Q71.968 293.984 71.968 384t34.016 171.008q34.016 79.008 95.008 140t140 94.016Q421.984 824.032 512 824.032t171.008-34.016q79.008-34.016 140-95.008t94.016-140q35.008-80.992 35.008-171.008t-34.016-171.008q-34.016-79.008-95.008-140z"  horiz-adv-x="1024" />

    
    <glyph glyph-name="car" unicode="&#59245;" d="M952 448H960l-50.016 242.016q-4.992 28.992-30.496 49.504t-55.488 20.512H200q-30.016 0-55.008-20.512t-31.008-49.504L63.968 448h8q-30.016 0-51.008-20.992t-20.992-51.008v-176q0-28 18.496-48.512T63.968 128q0-52.992 37.504-90.496T191.968 0t90.496 37.504T319.968 128h384q0-52.992 37.504-90.496T831.968 0t90.496 37.504T959.968 128q27.008 3.008 45.504 23.488t18.496 48.512v176q0 30.016-20.992 51.008T951.968 448zM182.016 688h656l50.016-240h-752zM952 200h-64V128q0-23.008-16.512-39.488T832 72t-39.488 16.512T776 128v72H248V128q0-23.008-16.512-39.488T192 72t-39.488 16.512T136 128v72h-64v176h880v-176zM156 288q0-15.008 10.496-25.504t25.504-10.496 25.504 10.496 10.496 25.504-10.496 25.504T192 324t-25.504-10.496-10.496-25.504z m640 0q0-15.008 10.496-25.504t25.504-10.496 25.504 10.496 10.496 25.504-10.496 25.504-25.504 10.496-25.504-10.496-10.496-25.504z"  horiz-adv-x="1024" />

    
    <glyph glyph-name="check" unicode="&#59246;" d="M328 96q-3.008 0-4.992 0.992-20 2.016-30.016 20l-159.008 278.016q-8 15.008-4 31.008t18.496 24 30.496 3.488 24.992-18.496l132.992-232.992L827.968 694.016q11.008 12 28 12t28.512-11.488 11.488-28.512-12-28l-528-530.016q-11.008-12-28-12z"  horiz-adv-x="1024" />

    
    <glyph glyph-name="check-circle" unicode="&#59247;" d="M512 896q-139.008 0-256.992-68.512T68.512 640.992 0 384t68.512-256.992 186.496-186.496T512-128t256.992 68.512 186.496 186.496T1024 384t-68.512 256.992-186.496 186.496T512 896z m260-356l-360-362.016q-3.008-3.008-8-6.016-8-4.992-18.016-4.992-20.992 0-31.008 18.016L245.984 376q-8 12.992-4 27.008t16.992 21.504 27.488 3.488 21.504-16.992l86.016-148.992 327.008 328q11.008 11.008 26.016 11.008t25.504-10.496 10.496-25.504-11.008-24.992z"  horiz-adv-x="1024" />

    
    <glyph glyph-name="check-square-o" unicode="&#59248;" d="M720.992 589.984l-327.008-328-86.016 148.992q-7.008 12.992-21.504 16.992t-27.488-3.488-16.992-21.504 4-27.008l108.992-191.008q10.016-18.016 31.008-18.016 10.016 0 18.016 4.992 4.992 3.008 8 6.016l0.992 0.992 359.008 360q11.008 11.008 11.008 26.016t-10.496 25.504-25.504 10.496-26.016-11.008zM888 760v-752.992H136V760h752z m0 72H136q-30.016 0-51.008-20.992T64 760v-752.992q0-28.992 20.992-50.496t51.008-21.504h752.992q28.992 0 50.496 21.504t21.504 50.496V760q0 30.016-21.504 51.008T888 832z"  horiz-adv-x="1024" />

    
    <glyph glyph-name="check-square" unicode="&#59249;" d="M888 832H136q-30.016 0-51.008-20.992T64 760v-752.992q0-28.992 20.992-50.496t51.008-21.504h752.992q28.992 0 50.496 21.504t21.504 50.496V760q0 30.016-21.504 51.008T888 832z m-116-292.992l-360-360.992q-3.008-3.008-8-6.016-8-4.992-18.016-4.992-20.992 0-31.008 18.016l-108.992 191.008q-8 12.992-4 27.008t16.992 21.504 27.488 3.488 21.504-16.992l86.016-148.992 327.008 328q11.008 11.008 26.016 11.008t25.504-10.496 10.496-25.504-11.008-26.016z"  horiz-adv-x="1024" />

    
    <glyph glyph-name="close-circle" unicode="&#59250;" d="M512 896q-139.008 0-256.992-68.512T68.512 640.992 0 384t68.512-256.992 186.496-186.496T512-128t256.992 68.512 186.496 186.496T1024 384t-68.512 256.992-186.496 186.496T512 896z m204.992-667.008q11.008-10.016 11.008-24.992t-10.496-25.504-25.504-10.496-26.016 10.016l-154.016 155.008-154.016-155.008q-11.008-10.016-26.016-10.016t-25.504 10.496-10.496 25.504 11.008 24.992L460.96 384l-154.016 155.008q-11.008 10.016-11.008 24.992t10.496 25.504 25.504 10.496 26.016-10.016l154.016-155.008 154.016 155.008q11.008 10.016 26.016 10.016t25.504-10.496 10.496-24.992-11.008-25.504L562.976 384z"  horiz-adv-x="1024" />

    
    <glyph glyph-name="chrome" unicode="&#59251;" d="M258.016 448.992L112 703.008Q183.008 793.024 288 844.512T512 896q138.016 0 255.488-68t185.504-183.008H534.976q-11.008 0.992-23.008 0.992-90.016 0-160.992-55.488t-92.992-141.504z m436.992 122.016h294.016q35.008-90.016 35.008-187.008 0-103.008-40-197.504t-107.488-163.008-161.504-109.504-196.992-42.016l208.992 363.008q47.008 67.008 47.008 148.992 0 110.016-79.008 187.008zM326.016 384q0 76.992 54.496 131.488T512 569.984t131.488-54.496T697.984 384t-54.496-131.488T512 198.016t-131.488 54.496T326.016 384z m256-252.992l-146.016-252.992q-122.016 18.016-222.016 88.992t-156.992 180.992T0 384q0 135.008 66.016 251.008l208.992-362.016q32-68 96-109.504T512 121.984q36 0 70.016 8.992z"  horiz-adv-x="1024" />

    
    <glyph glyph-name="close-square-o" unicode="&#59252;" d="M717.504 589.504q-10.496 10.496-25.504 10.496t-26.016-10.016l-154.016-155.008-154.016 155.008q-11.008 10.016-26.016 10.016t-25.504-10.496-10.496-25.504 11.008-24.992L460.96 384l-154.016-155.008q-11.008-10.016-11.008-24.992t10.496-25.504 25.504-10.496 26.016 10.016l154.016 155.008 154.016-155.008q11.008-10.016 26.016-10.016t25.504 10.496 10.496 24.992-11.008 25.504L562.976 384l154.016 155.008q11.008 10.016 11.008 24.992t-10.496 25.504zM888 760v-752.992H136V760h752z m0 72H136q-30.016 0-51.008-20.992T64 760v-752.992q0-28.992 20.992-50.496t51.008-21.504h752.992q28.992 0 50.496 21.504t21.504 50.496V760q0 30.016-21.504 51.008T888 832z"  horiz-adv-x="1024" />

    
    <glyph glyph-name="clock-circle" unicode="&#59253;" d="M512 896q-139.008 0-256.992-68.512T68.512 640.992 0 384t68.512-256.992 186.496-186.496T512-128t256.992 68.512 186.496 186.496T1024 384t-68.512 256.992-186.496 186.496T512 896z m256.992-540q0-15.008-10.496-25.504t-25.504-10.496h-184.992q-30.016 0-51.008 20.992t-20.992 51.008v240q0 15.008 10.496 25.504T512 668q15.008 0 25.504-10.496t10.496-25.504v-240h184.992q15.008 0 25.504-10.496t10.496-25.504z"  horiz-adv-x="1024" />

    
    <glyph glyph-name="clock-circle-o" unicode="&#59254;" d="M512 896q-139.008 0-256.992-68.512T68.512 640.992 0 384t68.512-256.992 186.496-186.496T512-128t256.992 68.512 186.496 186.496T1024 384t-68.512 256.992-186.496 186.496T512 896z m311.008-823.008q-60.992-60.992-140-94.016-80.992-35.008-171.008-35.008t-171.008 34.016q-79.008 34.016-140 95.008t-94.016 140Q71.968 293.984 71.968 384t34.016 171.008q34.016 79.008 95.008 140t140 94.016Q421.984 824.032 512 824.032t171.008-34.016q79.008-34.016 140-95.008t94.016-140q35.008-80.992 35.008-171.008t-34.016-171.008q-34.016-79.008-95.008-140z m-90.016 319.008h-184.992v240q0 15.008-10.496 25.504T512 668q-15.008 0-25.504-10.496t-10.496-25.504v-240q0-30.016 20.992-51.008t51.008-20.992h184.992q15.008 0 25.504 10.496t10.496 25.504q0 15.008-10.496 25.504t-25.504 10.496z"  horiz-adv-x="1024" />

    
    <glyph glyph-name="close" unicode="&#59255;" d="M568 380.992l254.016 255.008q12 11.008 12 27.488t-11.488 28-28 11.488-27.488-12l-255.008-254.016-255.008 254.016q-11.008 12-27.488 12t-28-11.488-11.488-28 12-27.488l254.016-255.008-254.016-255.008q-12-11.008-12-27.488t11.488-28 28-11.488 27.488 12l255.008 255.008 255.008-255.008q11.008-12 27.488-12t28 11.488 11.488 28-12 27.488z"  horiz-adv-x="1024" />

    
    <glyph glyph-name="cloud-o" unicode="&#59256;" d="M702.016 35.008H298.016q-48 0-90.496 16.992t-76.512 50.016q-34.016 34.016-52 76t-18.016 90.016q0 83.008 52.992 147.008 19.008 23.008 42.016 40 0 38.016 15.008 71.008 14.016 32.992 40.992 60l0.992 0.992q27.008 26.016 60.992 39.488t72 13.504q12 0 24-0.992 24 26.016 54.016 46.016 72 48 159.008 48 58.016 0 108.992-20 51.008-20.992 92-60.992 42.016-40.992 63.008-90.016 14.016-34.016 19.008-71.008 32-24.992 55.008-60l7.008-11.008v-0.992q35.008-59.008 35.008-128 0-52-19.008-99.008-20-46.016-58.016-83.008t-84-56q-47.008-18.016-100-18.016zM263.008 535.008q-18.016-16.992-26.016-36.992-8.992-20.992-8.992-44 0-7.008 0.992-12.992l2.016-23.008-19.008-12q-24-14.016-43.008-36.992-36-44-36-100.992 0-32.992 12-62.016t36.512-52.512 53.504-35.488q28.992-11.008 63.008-11.008h404q39.008 0 72.512 13.504t60.992 40 41.504 59.488 14.016 71.008q0 54.016-28.992 98.016l-2.016 4q-20 28.992-48.992 48.992l-14.016 10.016-2.016 16.992q-2.016 34.016-15.008 64-15.008 36.992-47.008 67.008-31.008 31.008-68 46.016-38.016 15.008-82.016 15.008-66.016 0-119.008-35.008-30.016-20.992-51.008-48l-15.008-19.008-23.008 6.016q-14.016 4-30.016 3.008-24 0-44.512-8t-37.504-24.992z"  horiz-adv-x="1024" />

    
    <glyph glyph-name="cloud-download-o" unicode="&#59257;" d="M926.016 411.008v0.992l-0.992 2.016q-26.016 39.008-64.992 66.016-3.008 43.008-20 82.016-20 48-59.008 86.016t-88 58.016q-48 19.008-103.008 19.008-84 0-152-44.992-38.016-26.016-64.992-60.992-20.992 4.992-42.016 4.992-34.016 0-64-12T212.992 577.088q-24.992-24-36.992-52.992-12.992-30.016-12.992-64 0-10.016 0.992-18.016-31.008-19.008-56-48.992-48-59.008-48-135.008 0-44 16-83.008t48-70.016 71.008-46.496 84-15.488h440q50.016 0 94.016 16.992 44 18.016 79.008 52.992 36 35.008 54.016 78.016t18.016 92q0 70.016-38.016 128z m-784-208q-11.008 24.992-11.008 55.008 0 24.992 8 47.008t24 42.016h0.992q16.992 22.016 40 35.008l38.016 22.016-6.016 43.008q-0.992 4.992-0.992 12.992 0 19.008 7.008 36v0.992q7.008 16 20.992 28.992t31.008 20 36 7.008q15.008 0 28-4l43.008-12 26.016 36q20.992 27.008 51.008 48 50.016 32.992 111.008 32.992 42.016 0 76.992-15.008 36-14.016 64.992-42.016 28.992-28.992 43.008-63.008 12.992-28.992 15.008-63.008l0.992-31.008 27.008-18.016q27.008-18.016 46.016-44.992l2.016-3.008q14.016-20.992 20.992-43.488t7.008-47.488q0-35.008-12.992-64.992T841.6 163.52t-55.488-36.512q-31.008-12.992-67.008-12.992H279.104q-31.008 0-56.992 11.008-24.992 10.016-48 31.008-20.992 20.992-31.008 44.992z m324.48 152q14.496 0 25.504-11.008l68-68v246.016q0 15.008 10.496 25.504t25.504 10.496 25.504-10.496 10.496-25.504v-246.016l68.992 68q10.016 11.008 24.992 11.008t25.504-10.496 10.496-25.504-11.008-24.992l-128.992-130.016q-11.008-10.016-26.016-10.016t-24.992 10.016l-130.016 130.016q-10.016 10.016-10.016 24.992t10.496 25.504 24.992 10.496z"  horiz-adv-x="1024" />

    
    <glyph glyph-name="cloud-download" unicode="&#59258;" d="M926.016 411.008v0.992l-0.992 2.016q-26.016 39.008-64.992 66.016-3.008 43.008-20 82.016-20 48-59.008 86.016t-88 58.016q-48 19.008-103.008 19.008-84 0-152-44.992-38.016-26.016-64.992-60.992-20.992 4.992-42.016 4.992-34.016 0-64-12T212.992 577.088q-24.992-24-36.992-52.992-12.992-30.016-12.992-64 0-10.016 0.992-18.016-31.008-19.008-56-48.992-48-59.008-48-135.008 0-44 16-83.008t48-70.016 71.008-46.496 84-15.488h440q50.016 0 94.016 16.992 44 18.016 79.008 52.992 36 35.008 54.016 78.016t18.016 92q0 70.016-38.016 128z m-175.008-117.024l-128.992-130.016q-11.008-10.016-26.016-10.016t-24.992 10.016l-130.016 130.016q-10.016 10.016-10.016 24.992t10.496 25.504 24.992 10.496 25.504-11.008l68-68v246.016q0 15.008 10.496 25.504t25.504 10.496 25.504-10.496 10.496-25.504v-246.016l68.992 68q10.016 11.008 24.992 11.008t25.504-10.496 10.496-25.504-11.008-24.992z"  horiz-adv-x="1024" />

    
    <glyph glyph-name="close-square" unicode="&#59259;" d="M888 832H136q-30.016 0-51.008-20.992T64 760v-752.992q0-28.992 20.992-50.496t51.008-21.504h752.992q28.992 0 50.496 21.504t21.504 50.496V760q0 30.016-21.504 51.008T888 832z m-170.496-653.504q-10.496-10.496-25.504-10.496t-26.016 10.016l-154.016 155.008-154.016-155.008q-11.008-10.016-26.016-10.016t-25.504 10.496-10.496 25.504 11.008 24.992L460.96 384l-154.016 155.008q-11.008 10.016-11.008 24.992t10.496 25.504 25.504 10.496 26.016-10.016l154.016-155.008 154.016 155.008q11.008 10.016 26.016 10.016t25.504-10.496 10.496-25.504-11.008-24.992L562.976 384l154.016-155.008q11.008-11.008 11.008-25.504t-10.496-24.992z"  horiz-adv-x="1024" />

    
    <glyph glyph-name="cloud-upload-o" unicode="&#59260;" d="M926.016 411.008v0.992l-0.992 2.016q-26.016 39.008-64.992 66.016-3.008 43.008-20 82.016-20 48-59.008 86.016t-88 58.016q-48 19.008-103.008 19.008-84 0-152-44.992-38.016-26.016-64.992-60.992-20.992 4.992-42.016 4.992-34.016 0-64-12T212.992 577.088q-24.992-24-36.992-52.992-12.992-30.016-12.992-64 0-10.016 0.992-18.016-31.008-19.008-56-48.992-48-59.008-48-135.008 0-44 16-83.008t48-70.016 71.008-46.496 84-15.488h440q50.016 0 94.016 16.992 44 18.016 79.008 52.992 36 35.008 54.016 78.016t18.016 92q0 70.016-38.016 128z m-784-208q-11.008 24.992-11.008 55.008 0 24.992 8 47.008t24 42.016h0.992q16.992 22.016 40 35.008l38.016 22.016-6.016 43.008q-0.992 4.992-0.992 12.992 0 19.008 7.008 36v0.992q7.008 16 20.992 28.992t31.008 20 36 7.008q15.008 0 28-4l43.008-12 26.016 36q20.992 27.008 51.008 48 50.016 32.992 111.008 32.992 42.016 0 76.992-15.008 36-14.016 64.992-42.016 28.992-28.992 43.008-63.008 12.992-28.992 15.008-63.008l0.992-31.008 27.008-18.016q27.008-18.016 46.016-44.992l2.016-3.008q14.016-20.992 20.992-43.488t7.008-47.488q0-35.008-12.992-64.992T841.6 163.52t-55.488-36.512q-31.008-12.992-67.008-12.992H279.104q-31.008 0-56.992 11.008-24.992 10.016-48 31.008-20.992 20.992-31.008 44.992z m324.48 153.984q14.496 0 25.504 11.008l68 68v-246.016q0-15.008 10.496-25.504t25.504-10.496 25.504 10.496 10.496 25.504v246.016l68.992-68q10.016-11.008 24.992-11.008t25.504 10.496 10.496 25.504-11.008 24.992l-128.992 130.016q-11.008 10.016-26.016 10.016t-24.992-10.016l-130.016-130.016q-10.016-10.016-10.016-24.992t10.496-25.504 24.992-10.496z"  horiz-adv-x="1024" />

    
    <glyph glyph-name="close-circle-o" unicode="&#59261;" d="M717.504 589.504q-10.496 10.496-25.504 10.496t-26.016-10.016l-154.016-155.008-154.016 155.008q-11.008 10.016-26.016 10.016t-25.504-10.496-10.496-25.504 11.008-24.992L460.96 384l-154.016-155.008q-11.008-10.016-11.008-24.992t10.496-25.504 25.504-10.496 26.016 10.016l154.016 155.008 154.016-155.008q11.008-10.016 26.016-10.016t25.504 10.496 10.496 24.992-11.008 25.504L562.976 384l154.016 155.008q11.008 10.016 11.008 24.992t-10.496 25.504zM512 896q-139.008 0-256.992-68.512T68.512 640.992 0 384t68.512-256.992 186.496-186.496T512-128t256.992 68.512 186.496 186.496T1024 384t-68.512 256.992-186.496 186.496T512 896z m311.008-823.008q-60.992-60.992-140-94.016-80.992-35.008-171.008-35.008t-171.008 34.016q-79.008 34.016-140 95.008t-94.016 140Q71.968 293.984 71.968 384t34.016 171.008q34.016 79.008 95.008 140t140 94.016Q421.984 824.032 512 824.032t171.008-34.016q79.008-34.016 140-95.008t94.016-140q35.008-80.992 35.008-171.008t-34.016-171.008q-34.016-79.008-95.008-140z"  horiz-adv-x="1024" />

    
    <glyph glyph-name="cloud-upload" unicode="&#59262;" d="M926.016 411.008v0.992l-0.992 2.016q-26.016 39.008-64.992 66.016-3.008 43.008-20 82.016-20 48-59.008 86.016t-88 58.016q-48 19.008-103.008 19.008-84 0-152-44.992-38.016-26.016-64.992-60.992-20.992 4.992-42.016 4.992-34.016 0-64-12T212.992 577.088q-24.992-24-36.992-52.992-12.992-30.016-12.992-64 0-10.016 0.992-18.016-31.008-19.008-56-48.992-48-59.008-48-135.008 0-44 16-83.008t48-70.016 71.008-46.496 84-15.488h440q50.016 0 94.016 16.992 44 18.016 79.008 52.992 36 35.008 54.016 78.016t18.016 92q0 70.016-38.016 128z m-174.528-43.52q-10.496-10.496-25.504-10.496t-26.016 11.008l-68 68v-246.016q0-15.008-10.496-25.504t-25.504-10.496-25.504 10.496-10.496 25.504v246.016l-68-68.992q-11.008-10.016-25.504-10.016t-24.992 10.496-10.496 25.504 10.016 24.992l130.016 130.016q10.016 10.016 24.992 10.016t24.992-10.016l130.016-130.016q11.008-10.016 11.008-24.992t-10.496-25.504z"  horiz-adv-x="1024" />

    
    <glyph glyph-name="cloud" unicode="&#59263;" d="M926.016 411.008v0.992l-0.992 2.016q-26.016 39.008-64.992 66.016-3.008 43.008-20 82.016-20 48-59.008 86.016t-88 58.016q-48 19.008-103.008 19.008-84 0-152-44.992-38.016-26.016-64.992-60.992-20.992 4.992-42.016 4.992-34.016 0-64-12T212.992 577.088q-24.992-24-36.992-52.992-12.992-30.016-12.992-64 0-10.016 0.992-18.016-31.008-19.008-56-48.992-48-59.008-48-135.008 0-44 16-83.008t48-70.016 71.008-46.496 84-15.488h440q50.016 0 94.016 16.992 44 18.016 79.008 52.992 36 35.008 54.016 78.016t18.016 92q0 70.016-38.016 128z"  horiz-adv-x="1024" />

    
    <glyph glyph-name="code-o" unicode="&#59264;" d="M888 832H136q-30.016 0-51.008-20.992T64 760v-752.992q0-28.992 20.992-50.496t51.008-21.504h752.992q28.992 0 50.496 21.504t21.504 50.496V760q0 30.016-21.504 51.008T888 832z m0-824.992H136V760h752v-752.992zM203.488 357.504q10.496-10.496 25.504-10.496t24.992 11.008l140 140.992q11.008 10.016 11.008 24.992t-10.016 26.016L253.984 692.032q-10.016 10.016-24.992 10.016t-25.504-10.496-10.496-24.992 10.016-25.504l115.008-116.992-115.008-115.008q-10.016-11.008-10.016-26.016t10.496-25.504z m179.52 26.496q0-15.008 10.496-25.504t24.512-10.496l200-0.992q14.016 0 24.992 10.496t11.008 25.504-11.008 25.504-24.992 10.496l-199.008 0.992q-15.008 0-25.504-10.496t-10.496-25.504z"  horiz-adv-x="1024" />

    
    <glyph glyph-name="compass" unicode="&#59265;" d="M520.992 512q-58.016 4-99.488-37.504T384 375.008l-98.016-216.992 216.992 98.016q58.016-4 99.488 37.504t37.504 99.488l98.016 216.992z m30.496-167.488q-16.512-16.512-39.488-16.512t-39.488 16.512T456 384t16.512 39.488T512 440t39.488-16.512T568 384t-16.512-39.488zM512 896q-139.008 0-256.992-68.512T68.512 640.992 0 384t68.512-256.992 186.496-186.496T512-128t256.992 68.512 186.496 186.496T1024 384t-68.512 256.992-186.496 186.496T512 896z m0-952q-182.016 0-311.008 128.992T72 384t128.992 311.008T512 824t311.008-128.992T952 384t-128.992-311.008T512-56z"  horiz-adv-x="1024" />

    
    <glyph glyph-name="coffee" unicode="&#59266;" d="M275.008 615.008q15.008 0 25.504 10.496t10.496 25.504V860q0 15.008-10.496 25.504T275.008 896t-25.504-10.496-10.496-25.504v-208.992q0-15.008 10.496-25.504t25.504-10.496z m612.992-144H768q0 30.016-20.992 51.008t-51.008 20.992H200q-30.016 0-51.008-20.992T128 471.008v-248q0-4.992 0.992-10.016Q128 202.976 128 192q0-132.992 93.504-226.496T448-128q119.008 0 208.512 77.504t107.488 193.504h124q30.016 0 51.008 20.992T960 215.008v184q0 30.016-20.992 51.008t-51.008 20.992z m-192-256h-0.992q0.992-12 0.992-23.008 0-103.008-72.512-175.488T448-56t-175.488 72.512T200 192q0 11.008 0.992 23.008H200v256h496v-256z m192 8h-112v176h112v-176z m-275.008 392q15.008 0 25.504 10.496t10.496 25.504V860q0 15.008-10.496 25.504T612.992 896t-25.504-10.496-10.496-25.504v-208.992q0-15.008 10.496-25.504t25.504-10.496z m-169.984 0q15.008 0 25.504 10.496t10.496 25.504V860q0 15.008-10.496 25.504T443.008 896t-25.504-10.496-10.496-25.504v-208.992q0-15.008 10.496-25.504t25.504-10.496z"  horiz-adv-x="1024" />

    
    <glyph glyph-name="code" unicode="&#59267;" d="M888 832H136q-30.016 0-51.008-20.992T64 760v-752.992q0-28.992 20.992-50.496t51.008-21.504h752.992q28.992 0 50.496 21.504t21.504 50.496V760q0 30.016-21.504 51.008T888 832zM228.992 347.008q-15.008 0-25.504 10.496t-10.496 25.504 10.016 26.016l115.008 115.008-115.008 116.992q-10.016 11.008-10.016 25.504t10.496 24.992 25.504 10.496 24.992-10.016l140.992-142.016q10.016-11.008 10.016-26.016t-11.008-24.992l-140-140.992q-10.016-11.008-24.992-11.008z m389.024 0l-199.008 0.992q-15.008 0-25.504 10.496T383.008 384t10.496 25.504 25.504 10.496l199.008-0.992q15.008 0 25.504-10.496t10.496-25.504-11.008-25.504-24.992-10.496z"  horiz-adv-x="1024" />

    
    <glyph glyph-name="copy" unicode="&#59268;" d="M875.008 657.984L660.992 874.976q-7.008 6.016-15.008 11.008-3.008 2.016-4 2.016-0.992 0.992-3.008 2.016-14.016 6.016-28.992 6.016h-280.992q-30.016 0-51.488-20.992T256 824.032v-56H200q-28.992 0-50.496-21.504T128 696.032v-752q0-30.016 21.504-51.008t50.496-20.992h496q28.992 0 50.016 20.992t20.992 51.008v56h56.992q30.016 0 50.496 20.992t20.512 51.008V608.032q0 30.016-20 50.016z m-228 128L784 647.968h-136.992V785.984z m48-841.984H200V696H256v-624q0-30.016 21.504-51.008t51.488-20.992h366.016v-56z m128 128H328V824h247.008v-176q0-30.016 21.504-51.008T648 576h175.008v-504zM640 476q0 15.008-10.496 25.504T604 512h-184q-15.008 0-25.504-10.496t-10.496-25.504 10.496-25.504 25.504-10.496h184q15.008 0 25.504 10.496t10.496 25.504z m128-128q0 15.008-10.496 25.504T732 384h-312q-15.008 0-25.504-10.496t-10.496-25.504 10.496-25.504 25.504-10.496h312q15.008 0 25.504 10.496t10.496 25.504z m-64-128q0 15.008-10.496 25.504T668 256h-248q-15.008 0-25.504-10.496t-10.496-25.504 10.496-25.504 25.504-10.496h248q15.008 0 25.504 10.496t10.496 25.504z"  horiz-adv-x="1024" />

    
    <glyph glyph-name="contacts" unicode="&#59269;" d="M256 204q0 15.008-10.496 25.504t-25.504 10.496h-120q-15.008 0-25.504-10.496T64 204t10.496-25.504 25.504-10.496h120q15.008 0 25.504 10.496T256 204zM100 525.984h120q15.008 0 25.504 10.496T256 561.984t-10.496 25.504-25.504 10.496h-120q-15.008 0-25.504-10.496T64 561.984t10.496-25.504 25.504-10.496zM888 832H200q-30.016 0-51.008-20.992T128 760V704q0-15.008 10.496-25.504t25.504-10.496 25.504 10.496T200 704V760h688v-752H200V64q0 15.008-10.496 25.504t-25.504 10.496-25.504-10.496T128 64v-56q0-30.016 20.992-51.008T200-64h688q30.016 0 51.008 20.992T960 8V760q0 30.016-20.992 51.008T888 832zM100 347.008h120q15.008 0 25.504 10.496T256 383.008t-10.496 25.504-25.504 10.496h-120q-15.008 0-25.504-10.496T64 383.008t10.496-25.504 25.504-10.496z m475.488-35.008q-67.488 0-115.488 48t-48 116 48 116T575.488 640t116-48 48.512-116-48.512-116-116-48z m0.512 256q-38.016 0-64.992-27.008t-27.008-64.992 27.008-64.992T576 384t64.992 27.008 27.008 64.992-27.008 64.992T576 568zM764 128q-12.992 0-23.008 8t-12 20.992q-11.008 55.008-54.016 91.008t-99.488 36-99.488-36-54.016-91.008q-2.016-12.992-12-20.992t-23.008-8q-3.008 0-7.008 0.992-14.016 2.016-22.496 14.496t-5.504 27.488q15.008 80 78.016 132.512t145.504 52.512 145.504-52.512T800 170.976q2.016-15.008-6.016-27.488t-23.008-14.496q-3.008-0.992-7.008-0.992z"  horiz-adv-x="1024" />

    
    <glyph glyph-name="copyright" unicode="&#59270;" d="M518.016 176q-79.008 0-120.992 56-42.016 52.992-42.016 150.016 0 96 43.008 152 44 58.016 120.992 58.016 63.008 0 100.992-28.992 38.016-31.008 48.992-91.008h80q-14.016 96-74.016 142.016-59.008 46.016-156 46.016-119.008 0-184.992-83.008-62.016-75.008-62.016-195.008 0-120.992 62.016-195.008 64.992-79.008 184-79.008 96 0 156 51.008 59.008 50.016 78.016 152.992h-80.992q-19.008-136-152.992-136zM512 896q-139.008 0-256.992-68.512T68.512 640.992 0 384t68.512-256.992 186.496-186.496T512-128t256.992 68.512 186.496 186.496T1024 384t-68.512 256.992-186.496 186.496T512 896z m0-952q-182.016 0-311.008 128.992T72 384t128.992 311.008T512 824t311.008-128.992T952 384t-128.992-311.008T512-56z"  horiz-adv-x="1024" />

    
    <glyph glyph-name="credit-card" unicode="&#59271;" d="M952 765.984H72q-30.016 0-51.008-20.992T0 693.984v-620.992q0-28.992 20.992-50.496t51.008-21.504h880q30.016 0 51.008 21.504T1024 72.992V693.984q0 30.016-20.992 51.008t-51.008 20.992z m0-692.992H72V477.984h880v-404.992zM72 573.984v120h880v-120H72zM236.992 192q18.016 0 31.008 12.992t12.992 31.008q0 18.016-12.992 31.008t-31.008 12.992q-18.016 0-31.008-12.992t-12.992-31.008q0-18.016 12.992-31.008t31.008-12.992z m167.008 0q18.016 0 31.008 12.992t12.992 31.008q0 18.016-12.992 31.008t-31.008 12.992q-19.008 0-31.488-12.992t-12.512-31.008q0-18.016 12.512-31.008t31.488-12.992z"  horiz-adv-x="1024" />

    
    <glyph glyph-name="database" unicode="&#59272;" d="M824 896H200q-30.016 0-51.008-20.992T128 824v-880q0-30.016 20.992-51.008T200-128h624q30.016 0 51.008 20.992T896-56V824q0 30.016-20.992 51.008T824 896z m0-943.008H200v244q0-0.992 0.992-0.992h622.016q0.992 0 0.992 0.992v-244z m0 314.016q0 0.992-0.992 0.992H200.992q-0.992 0-0.992-0.992v244q0-0.992 0.992-0.992h622.016q0.992 0 0.992 0.992v-244z m0 313.984q0 0.992-0.992 0.992H200.992q-0.992 0-0.992-0.992V824h624v-243.008zM284.992 75.008q0-15.008 10.496-25.504t25.504-10.496 25.504 10.496 10.496 25.504-10.496 25.504-25.504 10.496-25.504-10.496-10.496-25.504z m0 313.984q0-15.008 10.496-25.504t25.504-10.496 25.504 10.496 10.496 25.504-10.496 25.504-25.504 10.496-25.504-10.496-10.496-25.504z m0 314.016q0-15.008 10.496-25.504t25.504-10.496 25.504 10.496 10.496 25.504-10.496 25.504-25.504 10.496-25.504-10.496-10.496-25.504z"  horiz-adv-x="1024" />

    
    <glyph glyph-name="desktop" unicode="&#59273;" d="M902.016 765.984H123.008q-23.008 0-40-16.992t-16.992-40v-480q0-24 16.992-40.512t40-16.512H480v-108h-147.008q-12.992 0-22.496-9.504t-9.504-22.496 9.504-22.016 22.496-8.992h358.016q12.992 0 22.496 8.992t9.504 22.016-9.504 22.496-22.496 9.504h-148v108h359.008q24 0 40.512 16.512t16.512 40.512v480q0 23.008-16.512 40t-40.512 16.992zM896 703.008v-468H128.992V703.008H896z"  horiz-adv-x="1024" />

    
    <glyph glyph-name="delete" unicode="&#59274;" d="M178.016-50.016q-0.992 0-3.008 0.992l0.992-0.512 2.016-0.512z m-8 4q-3.008 2.016-4.992 3.008 2.016-0.992 4.992-3.008z m780.48 738.528q-10.496 10.496-26.496 10.496h-184V761.024q0 28.992-20.992 49.504t-50.016 20.512h-314.016q-30.016 0-50.496-20.512t-20.512-49.504v-58.016H98.976q-15.008 0-25.504-10.496t-10.496-24.992 10.496-24.992 25.504-10.496h31.008v-623.008q0-28.992 20.992-49.504t50.016-20.512h632q28.992 0 50.016 20.512t20.992 49.504V632.032h20q15.008 0 26.016 10.496t11.008 24.992-10.496 24.992zM354.016 760h315.008v-56.992h-315.008V760z m478.976-751.008H200.992V632h632v-623.008zM511.488 512q-14.496 0-24.992-10.496t-10.496-25.504v-334.016q0-15.008 10.496-25.504t24.992-10.496 24.992 10.496 10.496 25.504V476q0 15.008-10.496 25.504T511.488 512z m-194.496 0q-15.008 0-25.504-10.496t-10.496-25.504v-334.016q0-15.008 10.496-25.504t25.504-10.496 25.504 10.496 10.496 25.504V476q0 15.008-10.496 25.504T316.992 512zM704 512q-15.008 0-25.504-10.496t-10.496-25.504v-334.016q0-15.008 10.496-25.504t25.504-10.496 25.504 10.496 10.496 25.504V476q0 15.008-10.496 25.504T704 512z"  horiz-adv-x="1024" />

    
    <glyph glyph-name="customer-service" unicode="&#59275;" d="M838.016 579.008q-6.016 26.016-18.016 52-24.992 59.008-72 104.992-46.016 44.992-107.008 70.016-63.008 26.016-131.008 26.016t-131.008-26.016q-60-24.992-107.008-70.496t-72-104.512q-11.008-24.992-18.016-52.992-24-8-44.992-23.008-22.016-16-38.016-38.016-35.008-47.008-35.008-106.016 0-72 51.008-123.008 36.992-36.992 87.008-48 4-0.992 8-0.992 15.008 0 24.992 11.008 10.016 10.016 10.016 24.992l-0.992 227.008q0 107.008 76.992 183.008 78.016 76 188.512 76t188.512-76 78.016-183.008v-236q0-107.008-78.016-183.008-31.008-31.008-71.008-50.016 0.992 11.008 0.992 22.016-0.992 46.016-34.016 79.008t-79.008 35.008h-3.008q-48 0-82.016-34.496t-34.016-82.496q0-47.008 33.504-80.992T509.92-64h4.992q66.016 0.992 126.016 26.016t107.008 70.496 72.992 104.512q22.016 52.992 26.016 111.008 35.008 12.992 62.016 40 51.008 51.008 51.008 123.008 0 58.016-34.016 104.512t-88 63.488z m-756-224q0.992-3.008 3.008-7.008-2.016 4.992-3.008 7.008z m9.984-22.016q2.016-4 4.992-8.992-4 6.016-4.992 8.992zM160 332l2.016-2.016z m12.992 0q-4 3.008-7.008 6.016-31.008 31.008-31.008 72.992 0 28.992 14.016 52.992 8.992 16.992 24 28.992v-160.992z m8-16q-0.992 0-2.016 0.512t-0.992 1.504q0.992-0.992 3.008-2.016z m7.008 255.008Q188.992 576 192 584q-2.016-7.008-4-12.992z m16-323.008l-10.016 2.016q8.992-2.016 10.016-2.016z m6.016 0z m26.976 25.984zM307.008 756q7.008 4.992 10.016 7.008-6.016-4-10.016-7.008z m75.008 43.008Q352 786.016 324 768q28 18.016 58.016 31.008 0.992 0 2.496 0.512t2.496 0.512q-3.008 0-4.992-0.992z m60-38.016l2.016 0.512 3.008 0.512h2.016z m300-31.008q-44.992 44-104 68.992-0.992 0-2.496 0.512T633.024 800q0.992 0 2.496-0.512t2.496-0.512q59.008-24.992 104-68.992l6.016-6.016z m12-12q4-4 8.992-10.016-4.992 6.016-8.992 10.016z m10.976-12q2.016-3.008 8-10.016-4 4-8 10.016zM404 52zM512 160.992z m32.512-140q-12.512-12.992-30.496-14.016H512q-19.008 0-32 13.504t-12.992 31.488q0 19.008 12.992 32.512t32 13.504 32-13.504 12.992-32-12.512-31.488z m20.48 23.008z m50.016-24.992q0.992 0.992 2.496 1.504t2.496 0.512q-2.016-0.992-4.992-2.016z m127.008 18.976l-6.016-6.016q0.992 0.992 3.488 3.008t2.496 3.008l6.016 6.016q-3.008-4-6.016-6.016z m41.984 228z m28.992-125.984q-3.008-7.008-7.008-14.016 4 7.008 7.008 14.016 0 0.992 0.992 2.496t0.992 2.496q-0.992-3.008-2.016-4.992z m0 488q-3.008 7.008-7.008 14.016 4-7.008 7.008-14.016 0.992-2.016 3.008-7.008-0.992 3.008-3.008 7.008z m18.016-56q0 3.008-0.992 7.008 0-0.992 0.512-3.008t0.512-4z m8-62.016q7.008-3.008 12-7.008-4.992 4-12 7.008zM864 332q-11.008-11.008-24.992-18.016 14.016 7.008 24.992 18.016 0 0.992 0.992 0.992 0 0.992 0.992 0.992-0.992 0-0.992-0.992-0.992 0-0.992-0.992z m-5.984 5.984q-4.992-4.992-11.008-10.016v168q16.992-12.992 27.008-30.016 15.008-24.992 15.008-55.008 0-42.016-31.008-72.992z m86.976 122.016l-2.016 6.016q0.992-2.016 2.016-6.016z m-9.984 24.992q0.992-0.992 3.008-6.016-0.992 0.992-1.504 3.488t-1.504 2.496z m8-128.992q0 2.016 2.016 7.008-0.992-2.016-2.016-7.008z"  horiz-adv-x="1024" />

    
    <glyph glyph-name="dislike-o" unicode="&#59276;" d="M960 352v44l-4 6.016q-6.016 24-20 44 4.992 14.016 4.992 30.016 2.016 40-23.008 76 4 12 4.992 24.992 2.016 43.008-23.008 83.008 4.992 22.016 2.016 46.016-3.008 40.992-27.488 72t-64.512 44q-30.016 10.016-72 10.016H135.968q-30.016 0-51.008-20.992t-20.992-51.008v-368q0-30.016 20.992-51.008t51.008-20.992H248.96q6.016-0.992 16-3.008t32.512-14.496 34.496-30.496q18.016-28.992 52.992-90.016l11.488-20q7.488-12.992 10.496-18.016 2.016-4.992 2.016-10.016-0.992-20-2.016-62.016 0-12.992-0.992-36-0.992-56 50.016-83.008 32-16.992 66.016-16.992 30.016 0 59.008 12 38.016 16.992 54.016 56.992l8.992 24q15.008 40.992 24 64.992 18.016 52.992 4.992 120-4 19.008-7.008 40.992h174.016q26.016 0 50.016 8 52 19.008 66.016 76.992l2.016 4v3.008zM248 392h-112V760h112v-368z m640-28.992q0-0.992-0.992-3.008 0-2.016-0.992-2.016-4.992-20.992-20-27.008-12.992-4-26.016-4h-259.008l14.016-84q4-26.016 7.008-43.008 10.016-48-2.016-82.016-8-23.008-24-63.008-0.992-4.992-4.512-14.016t-4.512-10.016q-4-12-14.016-16-16-7.008-31.008-7.008-16 0-32 8-7.008 4-10.016 8-2.016 3.008-2.016 10.016 0.992 23.008 0.992 36.992v0.992q0.992 39.008 2.016 56.992 2.016 27.008-12 51.008-0.992 2.016-4 6.496t-4 6.496q-12.992 23.008-14.016 24l-0.992 2.016q-34.016 60-52.992 91.008h-0.992q-24.992 40-71.008 62.016L319.936 759.936h418.016q31.008 0 50.016-6.016t30.016-20.992q11.008-12.992 12.992-32.992v-0.992q0.992-12-2.016-24v-4l-6.016-24.992 16-24.992q12.992-20 12-39.008 0-4.992-2.016-8.992l-8.992-32.992 18.016-28q12-16 11.008-32.992 0-7.008-2.016-12.992l-8.992-32 19.008-28q6.016-10.016 8.992-20.992l2.016-8v-14.016z"  horiz-adv-x="1024" />

    
    <glyph glyph-name="dislike" unicode="&#59277;" d="M256 392q0-30.016-20.992-51.008T184 320h-48q-30.016 0-51.008 20.992T64 392V760q0 30.016 20.992 51.008T136 832h48q30.016 0 51.008-20.992T256 760v-368z m700.992-46.016q-11.008-43.008-47.008-56-20.992-6.016-42.016-6.016h-226.016q-7.008 0-8-1.504t0-8.512q2.016-10.016 4.512-26.496t4.992-30.496 4.512-26.016q12-62.016-4-108.992-6.016-16.992-36-96.992-10.016-28-36-39.008-52.992-22.016-102.016 3.008-34.016 18.016-32.992 54.016 0 10.016 0.992 48t2.016 58.016q0.992 18.016-8 32.992-72.992 124.992-76 130.016-4 6.016-28 32-16.992 18.016-24 30.016t-7.008 28.992q0 284-0.992 396.992 0 30.016 21.504 51.008T368.96 832h390.016q40 0 66.016-8.992 32-10.016 51.008-34.016t22.016-58.016q2.016-28.992-6.016-50.016-0.992-4 2.016-8.992 28-36.992 26.016-76-0.992-10.016-7.008-28.992-3.008-7.008 2.016-12.992 26.016-32.992 24.992-68.992 0-7.008-3.488-20.992t-3.488-15.008q-2.016-7.008 0-8.992 19.008-22.016 26.016-54.016 0-0.992 0.992-2.016v-28q-2.016-7.008-3.008-10.016z"  horiz-adv-x="1024" />

    
    <glyph glyph-name="disconnect" unicode="&#59278;" d="M900 772Q840 832 755.488 832t-143.488-60L432 592q-11.008-10.016-11.008-24.992t11.008-26.016 26.016-11.008 24.992 11.008l180 180q38.016 38.016 92.512 38.016t92.992-38.496 38.496-92.992-38.016-92.512l-180-180q-10.016-11.008-10.016-25.504t10.496-24.992 25.504-10.496 24.992 10.016l180 180q60 59.008 60 143.488t-60 144.512zM376.992 615.008q15.008 0 25.504 10.496t10.496 25.504V796q0 15.008-10.496 25.504T376.992 832t-26.016-10.496-11.008-25.504v-144.992q0.992-15.008 11.008-26.016 11.008-10.016 26.016-10.016z m432-476q-11.008 11.008-24.992 10.016-16 0-26.496-10.496t-10.496-25.504 11.008-24.992l102.016-103.008q11.008-10.016 26.016-10.016t25.504 10.496 10.496 25.504-10.016 24.992z m115.008 145.984h-144.992q-16 0-26.016-11.008-11.008-11.008-11.008-25.504t11.008-24.992 26.016-10.496h144q15.008 0 26.016 10.496t11.008 25.504-10.496 25.504-25.504 10.496z m-276-132q-15.008 0-25.504-10.496t-10.496-25.504v-144.992q0-15.008 10.496-25.504t25.504-10.496 25.504 10.496 10.496 25.504v144.992q0 15.008-11.008 24.992-10.016 11.008-24.992 11.008z m-107.008 74.016l-180-180Q322.976 8 268.48 8t-93.504 39.008Q136.96 86.016 136.96 140t38.016 92.992l180 180q10.016 10.016 10.016 24.992t-10.496 25.504-25.504 10.496-24.992-10.016l-180-180Q64 223.968 64 139.968q0-84.992 60-144 60-60 144-60 84.992 0 144 60l180 180q11.008 10.016 11.008 24.992t-11.008 25.504-26.016 10.496-24.992-10.016zM215.008 628.992q11.008-11.008 26.016-11.008t25.504 10.496 10.496 25.504-11.008 26.016L164 782.016q-11.008 11.008-26.016 11.008t-25.504-10.496-10.496-25.504 11.008-26.016z m-114.016-145.984h144.992q15.008 0 24.992 11.008 11.008 10.016 11.008 24.992t-10.496 25.504-25.504 10.496H100.992q-15.008 0-25.504-10.496t-10.496-25.504q-0.992-15.008 10.016-25.504t26.016-10.496z"  horiz-adv-x="1024" />

    
    <glyph glyph-name="double-left" unicode="&#59279;" d="M559.008 0q-15.008 0-27.008 10.016L108 351.008q-16.992 12.992-16.992 34.016t16.992 34.016L530.016 758.048q14.016 11.008 32 8.992t28.992-16 8.992-32-16-28.992L204.992 385.056l380.992-307.008q14.016-11.008 16-28.992t-8.992-32q-12.992-16.992-34.016-16.992z m329.984 0q-15.008 0-27.008 10.016l-424 340.992q-16.992 12.992-16.992 34.016t16.992 34.016L860 758.048q14.016 11.008 32 8.992t28.992-16 8.992-32-16-28.992l-379.008-304.992 380.992-307.008q14.016-11.008 16-28.992t-8.992-32q-12.992-16.992-34.016-16.992z"  horiz-adv-x="1024" />

    
    <glyph glyph-name="double-right" unicode="&#59280;" d="M431.008 16.992q-11.008 14.016-8.992 32t16 28.992l380.992 307.008L440 689.984q-14.016 11.008-16 28.992t8.992 32 28.992 16 32-8.992l422.016-339.008q16.992-12.992 16.992-34.016t-16.992-34.016l-424-340.992q-12-10.016-27.008-10.016-20.992 0-34.016 16.992z m-330.016 0q-11.008 14.016-8.992 32t16 28.992l380.992 307.008L109.984 689.984q-14.016 11.008-16 28.992t8.992 32 28.992 16 32-8.992l422.016-339.008q16.992-12.992 16.992-34.016t-16.992-34.016L161.984 9.952q-12-10.016-27.008-10.016-20.992 0-34.016 16.992z"  horiz-adv-x="1024" />

    
    <glyph glyph-name="dot-chart" unicode="&#59281;" d="M923.008 8H135.008V796.992q0 15.008-10.496 25.504t-25.504 10.496-25.504-10.496-10.496-25.504v-824.992q0-15.008 10.496-25.504t25.504-10.496h824q15.008 0 25.504 10.496t10.496 25.504-10.496 25.504-25.504 10.496zM252.992 259.488q0 27.488 19.008 46.496t46.496 19.008 47.008-19.008 19.488-46.496-19.488-47.008-47.008-19.488T272 212.48t-19.008 47.008zM512 299.008q0 35.008 24.992 60T597.504 384t60.512-24.992 24.992-60-24.992-60-60.512-24.992-60.512 24.992T512 299.008z m51.008 214.976q0 24.992 17.504 42.496t42.496 17.504 42.496-17.504 17.504-42.496-17.504-42.496-42.496-17.504-42.496 17.504-17.504 42.496z m241.984 143.52q0 18.496 12.992 32t32 13.504 32.512-13.504 13.504-32-13.504-32-32.512-13.504-32 13.504-12.992 32z m25.024-191.52q0 14.016 9.504 23.488t23.488 9.504 23.488-9.504 9.504-23.488-9.504-23.488-23.488-9.504-23.488 9.504-9.504 23.488z"  horiz-adv-x="1024" />

    
    <glyph glyph-name="down-circle" unicode="&#59282;" d="M512 895.008q-104 0-199.008-40.512T149.984 745.504 40.992 582.496 0 383.488t40.992-199.008 108.992-163.008 163.008-108.992T512-128.032t199.008 40.512 163.008 108.992 108.992 163.008T1024 383.488t-40.992 199.008-108.992 163.008-163.008 108.992T512 895.008z m247.008-465.024l-220.992-236q-10.016-11.008-26.016-11.008t-26.016 11.008l-220.992 236q-10.016 11.008-9.504 25.504t11.008 24.992 25.504 10.016 24.992-11.488l195.008-208 195.008 208q10.016 11.008 24.512 11.488t25.504-10.016 11.488-24.992-9.504-25.504z"  horiz-adv-x="1024" />

    
    <glyph glyph-name="down-square" unicode="&#59283;" d="M888 832H136q-30.016 0-51.008-20.992T64 760v-752.992q0-28.992 20.992-50.496t51.008-21.504h752.992q28.992 0 50.496 21.504t21.504 50.496V760q0 30.016-21.504 51.008T888 832z m-128.992-380.992l-220.992-236q-10.016-11.008-26.016-11.008t-26.016 11.008l-220.992 236q-11.008 11.008-10.496 26.016t11.488 24.992 26.016 9.504 24.992-11.488L512 293.024l195.008 207.008q10.016 11.008 24.992 11.488t25.504-9.504 11.008-24.992-9.504-26.016z"  horiz-adv-x="1024" />

    
    <glyph glyph-name="down-square-o" unicode="&#59284;" d="M888 760v-752.992H136V760h752z m0 72H136q-30.016 0-51.008-20.992T64 760v-752.992q0-28.992 20.992-50.496t51.008-21.504h752.992q28.992 0 50.496 21.504t21.504 50.496V760q0 30.016-21.504 51.008T888 832zM538.016 215.008l220.992 236q10.016 11.008 9.504 26.016t-11.008 24.992-25.504 9.504-24.992-11.488L512 293.024l-195.008 207.008q-10.016 11.008-24.992 11.488t-26.016-9.504-11.488-24.992 10.496-26.016l220.992-236q10.016-11.008 26.016-11.008t26.016 11.008z"  horiz-adv-x="1024" />

    
    <glyph glyph-name="down" unicode="&#59285;" d="M896 596q0-15.008-10.016-28L544.992 144.992q-12.992-16.992-34.016-16.992t-34.016 16.992L137.952 567.008q-11.008 14.016-8.992 32t16 28.992 32 8.992 28.992-16l304.992-379.008 307.008 380.992q11.008 14.016 28.992 16t32-8.992q16.992-12.992 16.992-34.016z"  horiz-adv-x="1024" />

    
    <glyph glyph-name="down-circle-o" unicode="&#59286;" d="M511.488 823.008q89.504 0 171.488-34.016 79.008-34.016 140-95.008t94.016-139.008q35.008-82.016 35.008-171.488t-35.008-171.488q-32.992-78.016-94.016-139.008t-140-95.008q-80.992-34.016-170.496-34.016t-171.488 34.016q-79.008 34.016-140 95.008t-94.016 139.008q-35.008 82.016-35.008 171.488t35.008 171.488q32.992 78.016 94.016 139.008t140 95.008q80.992 34.016 170.496 34.016zM512 895.008q-104 0-199.008-40.512T149.984 745.504 40.992 582.496 0 383.488t40.992-199.008 108.992-163.008 163.008-108.992T512-128.032t199.008 40.512 163.008 108.992 108.992 163.008T1024 383.488t-40.992 199.008-108.992 163.008-163.008 108.992T512 895.008z m0-712q-16 0-26.016 11.008l-220.992 236q-10.016 11.008-9.504 25.504t11.008 24.992 25.504 10.016 24.992-11.488L512 271.04l195.008 208q10.016 11.008 24.512 11.488t25.504-10.016 11.488-24.992-9.504-25.504l-220.992-236q-10.016-11.008-26.016-11.008z"  horiz-adv-x="1024" />

    
    <glyph glyph-name="edit" unicode="&#59287;" d="M924 8H100q-15.008 0-25.504-10.496T64-28t10.496-25.504 25.504-10.496h824q15.008 0 25.504 10.496t10.496 25.504-10.496 25.504-25.504 10.496zM296 125.984l236 100q4.992 2.016 10.016 6.016L939.008 630.016Q960 651.008 960 681.024t-20.992 51.008l-79.008 79.008q-20.992 20.992-51.008 20.992t-51.008-20.992L360.992 414.048q-4.992-4.992-7.008-11.008l-100-235.008q-8-20 7.008-35.008t35.008-7.008zM808.992 760l79.008-79.008-62.016-62.016-79.008 79.008zM416.992 368l279.008 279.008 79.008-79.008-279.008-279.008-136.992-58.016z"  horiz-adv-x="1024" />

    
    <glyph glyph-name="ellipsis" unicode="&#59288;" d="M128 384q0-27.008 18.496-45.504T192 320t45.504 18.496T256 384t-18.496 45.504T192 448t-45.504-18.496T128 384z m320 0q0-27.008 18.496-45.504T512 320t45.504 18.496T576 384t-18.496 45.504T512 448t-45.504-18.496T448 384z m320 0q0-27.008 18.496-45.504T832 320t45.504 18.496T896 384t-18.496 45.504T832 448t-45.504-18.496T768 384z"  horiz-adv-x="1024" />

    
    <glyph glyph-name="download" unicode="&#59289;" d="M488 112q10.016-10.016 24-10.016t24 10.016l156 156q11.008 10.016 11.008 24t-10.496 24.512-24.512 10.496-24-11.008l-96.992-96V796.992q0 15.008-10.496 24.992T512 832t-24-10.016-10.016-24.992v-576.992l-96.992 96.992q-11.008 10.016-24.992 10.016t-24-10.496-10.016-24.512 10.016-24zM924.512 256q-14.496 0-24.512-10.496t-10.016-24.512v-195.008q0-8.992-6.016-15.008t-15.008-6.016H152.96q-8.992 0-15.008 6.016t-6.016 15.008v195.008q0 14.016-10.016 24.512T97.408 256t-24.512-10.496-10.016-24.512v-223.008q0-26.016 18.016-44t44-18.016h772q26.016 0 44 18.496t18.016 43.488v223.008q0 14.016-10.016 24.512t-24.512 10.496z"  horiz-adv-x="1024" />

    
    <glyph glyph-name="enter" unicode="&#59290;" d="M900 509.984v192q0 16.992-11.488 28.512t-28 11.488-28.512-11.488-12-28.512v-192q0-92-64.992-156.992T598.016 288H258.016l112.992 112q11.008 12 11.008 28.512t-11.488 28-28 11.488-28.512-12L136 277.984q-12-12-12-28.512t12-28.512l183.008-183.008q12-12 28.512-12t28.512 11.488 12 28-12 28.512l-114.016 114.016h336q124.992 0 213.504 88.512t88.512 213.504z"  horiz-adv-x="1024" />

    
    <glyph glyph-name="enviroment" unicode="&#59291;" d="M512 592q-54.016 0-92-38.496t-38.016-92.512 38.016-92T512 330.976t92 38.016 38.016 92-38.016 92.512T512 592z m359.008 28.992q-31.008 62.016-86.016 108.992t-124.992 74.016Q588.992 830.016 512 830.016t-148.992-26.016q-68.992-27.008-124-74.016T152.992 620.992q-32-64-32-132.992 0-96.992 47.008-196.992 39.008-83.008 108.992-164 92-108 212-192 10.016-7.008 22.496-7.008t23.488 7.008q120 84.992 212 192 70.016 82.016 108.992 164 47.008 100 47.008 196.992 0 68.992-32 132.992z m-216-301.984Q596 260 512 260t-143.008 59.008-59.008 142.496 59.008 142.496T512 663.008t143.008-59.008 59.008-142.496-59.008-142.496z"  horiz-adv-x="1024" />

    
    <glyph glyph-name="enviroment-o" unicode="&#59292;" d="M512 663.008q-84 0-143.008-59.008t-59.008-142.496 59.008-142.496T512 260t143.008 59.008 59.008 142.496-59.008 142.496T512 663.008z m0-332q-54.016 0-92 38.016t-38.016 92 38.016 92.512T512 592.032t92-38.496 38.016-92.512-38.016-92T512 331.008z m359.008 289.984q-31.008 62.016-86.016 108.992t-124.992 74.016Q588.992 830.016 512 830.016t-148.992-26.016q-68.992-27.008-124-74.016T152.992 620.992q-32-64-32-132.992 0-96.992 47.008-196.992 39.008-83.008 108.992-164 92-108 212-192 10.016-7.008 22.496-7.008t23.488 7.008q120 84.992 212 192 70.016 82.016 108.992 164 47.008 100 47.008 196.992 0 68.992-32 132.992z m-40-133.984q0-80.992-40-166.016-34.016-72.992-98.016-148Q616 82.976 512 6.976q-104 76-180.992 166.016-63.008 75.008-98.016 148-40 84.992-40 167.008 0 52.992 24 102.016 24.992 48 68.992 86.016 44.992 39.008 102.016 60.992Q448 759.04 512 759.04t124-22.016q56.992-22.016 102.016-60.992 44.992-38.016 68.992-86.016 24-50.016 24-103.008z"  horiz-adv-x="1024" />

    
    <glyph glyph-name="exception" unicode="&#59293;" d="M888 832H135.008q-30.016 0-51.008-20.992T63.008 760v-752q0-30.016 20.992-51.008T135.008-64h276.992q15.008 0 25.504 10.496t10.496 25.504-10.496 25.504-25.504 10.496H135.008V760H888v-752h-84q-15.008 0-25.504-10.496t-10.496-25.504 10.496-25.504 25.504-10.496h84q30.016 0 51.008 20.992T960 8V760q0 30.016-20.992 51.008T888 832zM640-28q0-15.008 10.496-25.504t25.504-10.496 25.504 10.496 10.496 25.504-10.496 25.504-25.504 10.496-25.504-10.496-10.496-25.504zM676 512q-15.008 0-25.504-10.496t-10.496-25.504v-376q0-15.008 10.496-25.504t25.504-10.496 25.504 10.496 10.496 25.504v376q0 15.008-10.496 25.504T676 512z m-136 128h-312q-15.008 0-25.504-10.496T192 604t10.496-25.504 25.504-10.496h312q15.008 0 25.504 10.496T576 604t-10.496 25.504T540 640z m-128-192h-184q-15.008 0-25.504-10.496T192 412t10.496-25.504 25.504-10.496h184q15.008 0 25.504 10.496t10.496 25.504-10.496 25.504-25.504 10.496z m0-192h-184q-15.008 0-25.504-10.496T192 220t10.496-25.504 25.504-10.496h184q15.008 0 25.504 10.496t10.496 25.504-10.496 25.504-25.504 10.496z"  horiz-adv-x="1024" />

    
    <glyph glyph-name="exclamation" unicode="&#59294;" d="M512 192.992q-16.992 0-28.512 11.488t-11.488 28.512V728q0 16.992 11.488 28.512T512 768t28.512-11.488 11.488-28.512v-495.008q0-16.992-11.488-28.512t-28.512-11.488z m-44.992-109.984q0 19.008 12.992 32T512 128t32-12.992 12.992-32-12.992-32-32-12.992-32 12.992-12.992 32z"  horiz-adv-x="1024" />

    
    <glyph glyph-name="export" unicode="&#59297;" d="M838.016 329.984q-15.008 0-25.504-10.496t-10.496-25.504v-204q0-8-5.504-12.992t-12.512-4.992H216.992q-8 0-13.504 4.992t-5.504 12.992V676.992q0 8 5.504 13.504t13.504 5.504h254.016q15.008 0 25.504 10.496t10.496 24.992-10.496 24.992-25.504 10.496H216.992q-36.992 0-63.488-26.016t-26.496-64v-587.008q0-36.992 26.496-63.488t63.488-26.496H784q36.992 0 63.488 26.496t26.496 63.488v204q0 15.008-10.496 25.504t-25.504 10.496zM464 540q-44.992-68-54.016-136-2.016-15.008 7.008-26.496t23.008-13.504q2.016-0.992 4.992-0.992 12.992 0 23.488 8.992t12.512 22.016q0 4.992 3.008 17.504t14.016 40 27.008 50.496q70.016 103.008 206.016 104l3.008-0.992q15.008 0 25.504 10.496t10.496 25.504V683.04l100.992-95.008-100.992-84v34.016q0 15.008-10.496 25.504t-25.504 10.496-25.504-10.496-10.496-25.504v-111.008q0-22.016 20.992-32 7.008-3.008 15.008-3.008 12.992 0 23.008 8l190.016 158.016q12 11.008 12.992 26.016 0 16.992-11.008 28L759.04 793.056q-16.992 16-39.008 6.496t-22.016-32.512v-91.008q-152-12.992-234.016-136z"  horiz-adv-x="1024" />

    
    <glyph glyph-name="eye-o" unicode="&#59298;" d="M963.008 384q0 14.016-20.992 62.016-26.016 64.992-60.992 108.992-56.992 71.008-139.008 112Q643.008 717.024 512 717.024T280.992 667.008q-80-40.992-138.016-112Q108.96 512 81.984 446.016q-20.992-48-20.992-62.016 0-14.016 20.992-62.016 27.008-66.016 60.992-108.992 56.992-71.008 139.008-112 100-50.016 230.016-50.016t230.016 50.016q80.992 40.992 139.008 112 35.008 44 62.016 108.992 20 48 20 62.016z m-74.016 0q-24.992-76.992-64-126.016h-0.992q-46.016-59.008-114.016-92.992-84.992-42.016-198.496-42.016t-198.496 42.016q-67.008 34.016-114.016 92.992Q158.976 306.976 133.984 384q24.992 76.992 64.992 126.016 47.008 59.008 114.016 92.992Q397.984 646.016 512 646.016t198.016-43.008q67.008-32.992 114.016-92.992 40-48.992 64.992-126.016zM512 557.984q-72 0-122.496-50.496t-50.496-122.496 50.496-122.496T512 212t122.496 50.496 50.496 122.496-50.496 122.496T512 557.984z m102.016-172.992q0-42.016-30.016-72t-72-30.016-72 30.016-30.016 72 30.016 72 72 30.016 72-30.016 30.016-72z"  horiz-adv-x="1024" />

    
    <glyph glyph-name="eye" unicode="&#59299;" d="M512 487.008q-42.016 0-72-30.016t-30.016-72 30.016-72 72-30.016 72 30.016 30.016 72-30.016 72-72 30.016zM963.008 384q0 14.016-20.992 62.016-26.016 64.992-60.992 108.992-56.992 71.008-139.008 112Q643.008 717.024 512 717.024T280.992 667.008q-80-40.992-138.016-112Q108.96 512 81.984 446.016q-20.992-48-20.992-62.016 0-14.016 20.992-62.016 27.008-66.016 60.992-108.992 56.992-71.008 139.008-112 100-50.016 230.016-50.016t230.016 50.016q80.992 40.992 139.008 112 35.008 44 62.016 108.992 20 48 20 62.016zM512 212q-72 0-122.496 50.496t-50.496 122.016 50.496 122.496T512 558.016t122.496-51.008 50.496-122.496-50.496-122.016T512 212z"  horiz-adv-x="1024" />

    
    <glyph glyph-name="file-add" unicode="&#59300;" d="M860 128H704v156q0 15.008-10.496 25.504T668 320t-25.504-10.496-10.496-25.504V128h-148q-15.008 0-25.504-10.496t-10.496-25.504 10.496-25.504 25.504-10.496h148v-148q0-15.008 10.496-25.504t25.504-10.496 25.504 10.496 10.496 25.504V56h156q15.008 0 25.504 10.496t10.496 25.504-10.496 25.504-25.504 10.496z m15.008 465.984L596.992 874.976q-6.016 6.016-15.008 11.008-2.016 2.016-4 2.016-0.992 0.992-3.008 2.016-14.016 6.016-28.992 6.016H199.968q-30.016 0-51.008-20.992t-20.992-51.008v-880q0-30.016 20.992-51.008t51.008-20.992h212q15.008 0 25.504 10.496t10.496 25.504-10.496 25.504-25.504 10.496H199.968v880h312v-240q0-30.016 20.992-51.008t51.008-20.992h240v-156q0-15.008 10.496-25.504t25.504-10.496 25.504 10.496 10.496 25.504v188q0 28.992-20.992 50.016z m-291.008-9.984V786.016L784 584h-200z"  horiz-adv-x="1024" />

    
    <glyph glyph-name="file-excel" unicode="&#59301;" d="M875.008 593.984L596.992 874.976q-7.008 6.016-15.008 11.008-3.008 2.016-4 2.016-0.992 0.992-3.008 2.016-14.016 6.016-28.992 6.016H200.992q-30.016 0-51.488-20.992T128 824.032v-880q0-30.016 21.504-51.008t51.488-20.992H824q30.016 0 50.496 20.992t20.512 51.008v600q0 30.016-20 50.016z m-292 192L784 583.968h-200.992V785.984z m240-841.984H200V824h311.008v-240q0-30.016 21.504-51.008T584 512h239.008v-568z m-363.008 284.992L404 384h86.016l16-56.992q4.992-18.016 14.016-52.992h2.016q15.008 28.992 30.016 52.992L585.056 384h82.016l-111.008-159.008 60-162.016h-86.016l-19.008 63.008q-4 14.016-14.016 54.016h-2.016q-14.016-24.992-31.008-54.016l-39.008-63.008h-82.016z"  horiz-adv-x="1024" />

    
    <glyph glyph-name="file-jpg" unicode="&#59302;" d="M875.008 593.984L596.992 874.976q-7.008 6.016-15.008 11.008-3.008 2.016-4 2.016-0.992 0.992-3.008 2.016-14.016 6.016-28.992 6.016H200.992q-30.016 0-51.488-20.992T128 824.032v-880q0-30.016 21.504-51.008t51.488-20.992H824q30.016 0 50.496 20.992t20.512 51.008v600q0 30.016-20 50.016z m-292 192L784 583.968h-200.992V785.984z m240-841.984H200V824h311.008v-240q0-30.016 21.504-51.008T584 512h239.008v-568z m-472.992 256q0-18.016-5.504-24.992t-16.512-7.008q-15.008 0-24.992 19.008l-30.016-23.008q20-34.016 60.992-34.016 30.016 0 45.504 18.496t15.488 47.488v123.008h-44.992v-119.008z m150.976 119.008h-64v-186.016h44v62.016h22.016q31.008 0 52 16t20.992 48q0 60-75.008 60z m-0.992-89.024h-19.008v52.992h18.016q34.016 0 34.016-24.992 0-28-32.992-28z m183.008 9.024v-36h30.016v-30.016q-6.016-4.992-18.016-4.992-50.016 0-50.016 58.016 0 27.008 12.992 42.496t34.016 15.488q18.016 0 34.016-15.008l23.008 28.992q-24 24-59.008 24-39.008 0-64.992-26.016t-26.016-71.008q0-46.016 25.504-70.496t66.496-24.512q39.008 0 60.992 22.016v87.008h-68.992z"  horiz-adv-x="1024" />

    
    <glyph glyph-name="file-pdf" unicode="&#59303;" d="M875.008 593.984L596.992 874.976q-7.008 6.016-15.008 11.008-3.008 2.016-4 2.016-0.992 0.992-3.008 2.016-14.016 6.016-28.992 6.016H200.992q-30.016 0-51.488-20.992T128 824.032v-880q0-30.016 21.504-51.008t51.488-20.992H824q30.016 0 50.496 20.992t20.512 51.008v600q0 30.016-20 50.016z m-292 192L784 583.968h-200.992V785.984z m240-841.984H200V824h311.008v-240q0-30.016 21.504-51.008T584 512h239.008v-568zM332.992 320H265.984v-192H312v64h22.016q32.992 0 54.496 16.512t21.504 49.504q0 62.016-76.992 62.016z m-0.992-92H312v56h18.016q35.008 0 35.008-26.016 0-30.016-32.992-30.016zM498.016 320h-56v-192h58.016q44 0 68.992 24.512t24.992 72.512-25.504 71.488T498.016 320z m-3.008-155.008h-6.016v118.016h6.016q24.992 0 38.496-12.992t13.504-44.992q0-60-52-60z m256.992 116.992V320h-122.016v-192h46.016v72.992h64.992v38.016h-64.992v43.008H752z"  horiz-adv-x="1024" />

    
    <glyph glyph-name="file-text" unicode="&#59304;" d="M875.008 593.984L596.992 874.976q-7.008 6.016-15.008 11.008-3.008 2.016-4 2.016-0.992 0.992-3.008 2.016-14.016 6.016-28.992 6.016H200.992q-30.016 0-51.488-20.992T128 824.032v-880q0-30.016 21.504-51.008t51.488-20.992H824q30.016 0 50.496 20.992t20.512 51.008v600q0 30.016-20 50.016z m-292 192L784 583.968h-200.992V785.984z m240-841.984H200V824h311.008v-240q0-30.016 21.504-51.008T584 512h239.008v-568zM584 412q0 15.008-10.496 25.504T548 448h-256q-15.008 0-25.504-10.496T256 412t10.496-25.504 25.504-10.496h256q15.008 0 25.504 10.496t10.496 25.504z m192-160q0 15.008-10.496 25.504T740 288h-448q-15.008 0-25.504-10.496T256 252t10.496-25.504 25.504-10.496h448q15.008 0 25.504 10.496t10.496 25.504z m-128-160q0 15.008-10.496 25.504T612 128h-320q-15.008 0-25.504-10.496T256 92t10.496-25.504 25.504-10.496h320q15.008 0 25.504 10.496t10.496 25.504z"  horiz-adv-x="1024" />

    
    <glyph glyph-name="file-unknown" unicode="&#59305;" d="M875.008 593.984L596.992 874.976q-7.008 6.016-15.008 11.008-3.008 2.016-4 2.016-0.992 0.992-3.008 2.016-14.016 6.016-28.992 6.016H200.992q-30.016 0-51.488-20.992T128 824.032v-880q0-30.016 21.504-51.008t51.488-20.992H824q30.016 0 50.496 20.992t20.512 51.008v600q0 30.016-20 50.016z m-292 192L784 583.968h-200.992V785.984z m240-841.984H200V824h311.008v-240q0-30.016 21.504-51.008T584 512h239.008v-568z m-312.992 384.992q0 18.016-11.008 28t-28.992 10.016q-28 0-58.016-28.992l-55.008 51.008q52 59.008 124.992 59.008 56 0 90.496-28t34.496-84q0-20.992-10.016-40.512t-24-34.016-27.488-28.992-22.016-32.992-5.504-39.488h-88q-4.992 30.016 6.496 56.992t28.512 43.488 31.008 35.488 14.016 32.992zM432 61.984q0 19.008 12 31.008t29.504 12 29.504-12.512 12-30.496-12-30.496-29.504-12.512-29.504 12.512-12 30.496z"  horiz-adv-x="1024" />

    
    <glyph glyph-name="file-word" unicode="&#59306;" d="M875.008 593.984L596.992 874.976q-7.008 6.016-15.008 11.008-3.008 2.016-4 2.016-0.992 0.992-3.008 2.016-14.016 6.016-28.992 6.016H200.992q-30.016 0-51.488-20.992T128 824.032v-880q0-30.016 21.504-51.008t51.488-20.992H824q30.016 0 50.496 20.992t20.512 51.008v600q0 30.016-20 50.016z m-292 192L784 583.968h-200.992V785.984z m240-841.984H200V824h311.008v-240q0-30.016 21.504-51.008T584 512h239.008v-568z m-264 197.984q-0.992 14.016-0.992 46.016v48l-7.008 136h-60l-55.008-136q-20.992-56.992-34.016-94.016h-2.016l4.992 94.016 4.992 136H336.96l2.016-298.016h88l48.992 130.016q3.008 8 24 70.016h2.016q-2.016-35.008-0.992-70.016l4-130.016h90.016l104 298.016h-68l-43.008-136q-3.008-11.008-12.512-43.008t-15.488-51.008h-0.992z"  horiz-adv-x="1024" />

    
    <glyph glyph-name="file-ppt" unicode="&#59307;" d="M875.008 593.984L596.992 874.976q-7.008 6.016-15.008 11.008-3.008 2.016-4 2.016-0.992 0.992-3.008 2.016-14.016 6.016-28.992 6.016H200.992q-30.016 0-51.488-20.992T128 824.032v-880q0-30.016 21.504-51.008t51.488-20.992H824q30.016 0 50.496 20.992t20.512 51.008v600q0 30.016-20 50.016z m-292 192L784 583.968h-200.992V785.984z m240-841.984H200V824h311.008v-240q0-30.016 21.504-51.008T584 512h239.008v-568z m-284.992 445.984h-112l-56.992-334.016h76.992l19.008 119.008h36.992q55.008 0 96 28t51.008 82.016q10.016 56-20.992 80.512t-90.016 24.512z m36-104.992q-8.992-48.992-64.992-48.992h-32.992l16 92.992h32q28.992 0 41.504-10.016t8.512-34.016z"  horiz-adv-x="1024" />

    
    <glyph glyph-name="file" unicode="&#59308;" d="M875.008 593.984L596.992 874.976q-6.016 6.016-15.008 11.008-2.016 2.016-4 2.016-0.992 0.992-3.008 2.016-14.016 6.016-28.992 6.016H199.968q-30.016 0-51.008-20.992t-20.992-51.008v-880q0-30.016 20.992-51.008t51.008-20.992h624q30.016 0 51.008 20.992t20.992 51.008v600q0 28.992-20.992 50.016zM784 584h-200V786.016z m40-640H200V824H512v-240q0-30.016 20.992-51.008T584 512h240v-568z"  horiz-adv-x="1024" />

    
    <glyph glyph-name="filter" unicode="&#59309;" d="M890.496 719.488q-9.504 23.488-30.496 36.992t-46.016 13.504H211.968q-24.992 0-46.016-13.504t-30.496-36.992-4.512-48 22.016-42.496l272.992-263.008v-262.016q0-15.008 11.008-24.992l124.992-128.992q10.016-11.008 26.016-11.008 6.016 0 12.992 2.016 23.008 8.992 23.008 34.016V368l248 260.992q18.016 18.016 23.008 42.496t-4.512 48zM820.992 680l-259.008-272q-10.016-10.016-10.016-24.992v-322.016l-54.016 58.016v262.016q0 15.008-10.016 24.992L203.936 680.032q-4.992 4.992-2.016 11.488t10.016 6.496h602.016q7.008 0 9.504-6.496t-2.496-11.488z"  horiz-adv-x="1024" />

    
    <glyph glyph-name="flag" unicode="&#59310;" d="M888 640h-176V696q0 30.016-20.992 51.008T640 768H280q-3.008 27.008-23.488 45.504T208 832H136q-30.016 0-51.008-20.992T64 760v-752q0-30.016 20.992-51.008T136-64H208q30.016 0 51.008 20.992t20.992 51.008v256H640v-56q0-30.016 20.992-51.008t51.008-20.992h176q30.016 0 51.008 20.992T960 208V568q0 30.016-20.992 51.008T888 640zM208 8H136V760H208v-752zM640 336H280V696H640V336z m248-128h-176V568h176V208z"  horiz-adv-x="1024" />

    
    <glyph glyph-name="folder-add" unicode="&#59311;" d="M988 256H832v156q0 15.008-10.496 25.504T796 448t-25.504-10.496-10.496-25.504V256h-148q-15.008 0-25.504-10.496t-10.496-25.504 10.496-25.504 25.504-10.496h148v-148q0-15.008 10.496-25.504t25.504-10.496 25.504 10.496 10.496 25.504V184h156q15.008 0 25.504 10.496t10.496 25.504-10.496 25.504-25.504 10.496zM952 704H488.992L464 782.016q-7.008 22.016-26.016 36t-43.008 14.016H71.968q-30.016 0-51.008-20.992t-20.992-51.008v-688q0-30.016 20.992-51.008t51.008-20.992h468q15.008 0 25.504 10.496t10.496 25.504-10.496 25.504-25.504 10.496H71.968v560h880v-148q0-15.008 10.496-25.504t25.504-10.496 25.504 10.496 10.496 25.504V632.032q0 30.016-20.992 51.008t-51.008 20.992zM72 704V760h323.008L413.024 704H72.032z"  horiz-adv-x="1024" />

    
    <glyph glyph-name="fast-forward" unicode="&#59312;" d="M499.008 413.984L63.008 789.984Q44.992 806.976 22.496 796.48T0 759.968v-752q0-26.016 22.496-36.512t40.512 6.496l436 378.016q12.992 11.008 12.992 28.992t-12.992 28.992zM988 800q-15.008 0-25.504-10.496t-10.496-25.504v-298.016L575.008 789.984q-18.016 16.992-40.512 6.496T512 759.968v-752q0-26.016 22.496-36.512t40.512 6.496L952 303.968v-300q0-15.008 10.496-25.504t25.504-10.496q15.008 0 25.504 10.496t10.496 25.504V763.968q0 15.008-10.496 25.504t-25.504 10.496z"  horiz-adv-x="1024" />

    
    <glyph glyph-name="folder-open" unicode="&#59313;" d="M960 512V632q0 30.016-20.992 51.008T888 704H488.992L464 782.016q-7.008 22.016-26.016 36t-43.008 14.016H71.968q-30.016 0-51.008-20.992t-20.992-51.008v-688q0-4.992 0.992-11.008v-3.008l0.992-0.992v-2.496l0.512-0.992 0.512-0.512v-0.992q0-2.016 0.992-3.008 4.992-16.992 18.016-28.992 0.992 0 1.504-0.512l0.992-0.992 0.512-1.504q0.992 0 0.992-0.512t0.512-0.512 0.992-0.512 1.504-0.512v-0.992q0.992 0 1.504-0.512l1.504-1.504q15.008-10.016 32-11.008l0.992-0.992h795.008q24.992 0 44.512 15.488t25.504 39.488l92 368q8 31.008-11.008 58.016T960 511.968zM72 760h323.008l40.992-128H888V512H164q-24.992 0-44.512-15.008t-25.504-39.008l-22.016-88.992V760z m788-688H72l92 368H952z"  horiz-adv-x="1024" />

    
    <glyph glyph-name="fast-backward" unicode="&#59314;" d="M524.992 413.984l436 376q18.016 16.992 40.512 6.496T1024 759.968v-752q0-26.016-22.496-36.512t-40.512 6.496L524.992 354.944Q512 366.944 512 384.96t12.992 28.992zM36 800q15.008 0 25.504-10.496t10.496-25.504v-298.016L448.992 789.984q18.016 16.992 40.512 6.496T512 759.968v-752q0-26.016-22.496-36.512t-40.512 6.496L72 303.968v-300q0-15.008-10.496-25.504t-25.504-10.496q-15.008 0-25.504 10.496T0 3.968V763.968q0 15.008 10.496 25.504t25.504 10.496z"  horiz-adv-x="1024" />

    
    <glyph glyph-name="forward" unicode="&#59315;" d="M575.008 789.984l436-375.008q12.992-12 12.992-30.016t-12.992-28.992L575.008-22.048q-18.016-16.992-40.512-6.496T512 7.968v752q0 26.016 22.496 36.512t40.512-6.496z m-512 0l436-375.008q12.992-12 12.992-30.016t-12.992-28.992L63.008-22.048q-18.016-16.992-40.512-6.496T0 7.968v752q0 26.016 22.496 36.512t40.512-6.496z"  horiz-adv-x="1024" />

    
    <glyph glyph-name="folder" unicode="&#59316;" d="M952 704H488.992L464 782.016q-7.008 22.016-26.016 36t-43.008 14.016H71.968q-30.016 0-51.008-20.992t-20.992-51.008v-688q0-30.016 20.992-51.008t51.008-20.992h880q30.016 0 51.008 20.992t20.992 51.008v560q0 30.016-20.992 51.008t-51.008 20.992zM72 760h323.008L413.024 704H72.032V760z m880-688H72V632h880v-560z"  horiz-adv-x="1024" />

    
    <glyph glyph-name="frown-o" unicode="&#59317;" d="M512 896q-139.008 0-256.992-68.512T68.512 640.992 0 384t68.512-256.992 186.496-186.496T512-128t256.992 68.512 186.496 186.496T1024 384t-68.512 256.992-186.496 186.496T512 896z m311.008-823.008q-60.992-60.992-140-94.016-80.992-35.008-171.008-35.008t-171.008 34.016q-79.008 34.016-140 95.008t-94.016 140Q71.968 293.984 71.968 384t34.016 171.008q34.016 79.008 95.008 140t140 94.016Q421.984 824.032 512 824.032t171.008-34.016q79.008-34.016 140-95.008t94.016-140q35.008-80.992 35.008-171.008t-34.016-171.008q-34.016-79.008-95.008-140zM640 129.984q-15.008 0-25.504 11.008t-10.496 24.992q0 39.008-27.008 66.016T512 259.008t-64.992-27.008-27.008-66.016q0-14.016-10.496-24.992t-25.504-11.008-25.504 11.008-10.496 24.992q0 68 48 116.512T512 331.008t116-48.512 48-116.512q0-14.016-10.496-24.992t-25.504-11.008zM194.016 513.504q0 24.512 17.504 42.496t42.496 18.016 42.496-18.016 17.504-42.496-17.504-42.016-42.496-17.504-42.496 17.504-17.504 42.016z m516 0q0 24.512 17.504 42.496t42.016 18.016 42.496-18.016 18.016-42.496-18.016-42.016-42.496-17.504-42.016 17.504-17.504 42.016z"  horiz-adv-x="1024" />

    
    <glyph glyph-name="gift" unicode="&#59318;" d="M888 576H640q52.992 0 90.496 37.504T768 704t-37.504 90.496T640 832t-90.496-37.504T512 704q0 52.992-37.504 90.496T384 832 293.504 794.496 256 704t37.504-90.496T384 576H136q-30.016 0-51.008-20.992T64 504v-112q0-30.016 20.992-51.008T136 320H128v-312q0-30.016 20.992-51.008T200-64h624q30.016 0 51.008 20.992T896 8V320h-8q30.016 0 51.008 20.992T960 392v112q0 30.016-20.992 51.008T888 576zM384 648q-23.008 0-39.488 16.512T328 704t16.512 39.488T384 760t39.488-16.512T440 704v-56H384z m92-640H200V320h276v-312z m0 384H136v112h340v-112zM584 704q0 23.008 16.512 39.488T640 760t39.488-16.512T696 704t-16.512-39.488T640 648h-56V704z m240-696h-276V320h276v-312z m64 384H548v112H888v-112z"  horiz-adv-x="1024" />

    
    <glyph glyph-name="fork" unicode="&#59319;" d="M896 768q0 52.992-37.504 90.496T768 896t-90.496-37.504T640 768q0-43.008 26.016-76.992t66.016-46.016v-127.008l-220-220.992-220 220.992V644.992q40 12 66.016 46.016T384.064 768q0 52.992-37.504 90.496T256.064 896 165.568 858.496 128.064 768q0-43.008 25.504-76.992t66.496-46.016v-156.992h-0.992l256.992-256.992v-108q-40-12-66.016-46.016T384.032 0q0-52.992 37.504-90.496T512.032-128t90.496 37.504T640.032 0q0 43.008-26.016 76.992t-66.016 46.016V232l256 256V644.992q40 12 66.016 46.016T896.032 768zM200 768q0 23.008 16.512 39.488T256 824t39.488-16.512T312 768t-16.512-39.488T256 712t-39.488 16.512T200 768z m368-768q0-23.008-16.512-39.488T512-56t-39.488 16.512T456 0t16.512 39.488T512 56t39.488-16.512T568 0zM768 712q-23.008 0-39.488 16.512T712 768t16.512 39.488T768 824t39.488-16.512T824 768t-16.512-39.488T768 712z"  horiz-adv-x="1024" />

    
    <glyph glyph-name="frown" unicode="&#59320;" d="M512 896q-139.008 0-256.992-68.512T68.512 640.992 0 384t68.512-256.992 186.496-186.496T512-128t256.992 68.512 186.496 186.496T1024 384t-68.512 256.992-186.496 186.496T512 896zM254.016 453.984q-24.992 0-42.496 17.504t-17.504 42.016 17.504 42.496 42.496 18.016 42.496-18.016 17.504-42.496-17.504-42.016-42.496-17.504zM640 129.984q-15.008 0-25.504 11.008t-10.496 24.992q0 39.008-27.008 66.016T512 259.008t-64.992-27.008-27.008-66.016q0-14.016-10.496-24.992t-25.504-11.008-25.504 11.008-10.496 24.992q0 68 48 116.512T512 331.008t116-48.512 48-116.512q0-14.016-10.496-24.992t-25.504-11.008z m129.504 324q-24.512 0-42.016 17.504t-17.504 42.016 17.504 42.496 42.016 18.016 42.496-18.016 18.016-42.496-18.016-42.016-42.496-17.504z"  horiz-adv-x="1024" />

    
    <glyph glyph-name="global" unicode="&#59321;" d="M512 896q-139.008 0-256.992-68.512T68.512 640.992 0 384t68.512-256.992 186.496-186.496T512-128t256.992 68.512 186.496 186.496T1024 384t-68.512 256.992-186.496 186.496T512 896z m-117.984-88Q348 768.992 314.016 704q-31.008 16-59.008 36h-2.016q64.992 47.008 140.992 68zM198.016 692q40-31.008 87.008-54.016-35.008-94.016-40.992-204H75.04q16.992 150.016 123.008 258.016zM72 361.984h170.016q4-126.016 43.008-232-46.016-23.008-87.008-54.016-56 56-88.512 130.016T72 361.984z m180.992-333.984h2.016Q283.008 48 314.016 64q35.008-64.992 80-104-76 20.992-140.992 68z m228-38.016q-59.008 19.008-103.008 100 50.016 16 103.008 20v-120z m0 192q-67.008-4-132-24.992-32 92-35.008 204.992h167.008v-180z m0 252H316q6.016 96.992 32.992 176.992 64-20.992 132-24.992v-152z m0 224q-52.992 4-103.008 20 44 82.016 103.008 100v-120z m468-224h-168.992Q773.984 544 739.008 637.984q46.016 23.008 87.008 54.016 106.016-108 123.008-258.016z m-177.984 306.016h-2.016Q740.992 720 709.984 704q-35.008 64.992-80.992 104 76.992-20.992 142.016-68z m-218.016 33.984q52.992-22.016 92.992-96-44.992-15.008-92.992-19.008V773.984z m0-186.976q62.016 4 122.016 24 27.008-80 32.992-176.992h-155.008V587.008z m0-225.024h156.992q-3.008-112.992-35.008-204.992-59.008 19.008-122.016 24v180.992z m0-368v115.008q48-4 92.992-19.008-40-74.016-92.992-96z m77.024-33.984q46.016 39.008 80 104 31.008-16 59.008-36h2.016q-64.992-47.008-140.992-68z m196 116q-40 31.008-87.008 54.016 39.008 106.016 43.008 232h168.992q-4-82.016-36.512-156t-88.512-130.016z"  horiz-adv-x="1024" />

    
    <glyph glyph-name="hdd" unicode="&#59322;" d="M786.016 764.992q-4 15.008-16.992 24.512t-28.992 9.504H278.016q-16 0-28.992-9.504t-16.992-24.512q-3.008-8-68-243.008-68-244.992-68-248v-256.992q0-20 14.496-34.496T145.024-32h732.992q20 0 34.496 14.496t14.496 34.496L928 281.984zM864 224v-192.992H159.008V224H864z m-3.008 63.008H161.984L288.992 736h440z m-272.992-217.024q12.992 0 22.496 9.504t9.504 22.496v51.008q0 12.992-9.504 22.496t-22.496 9.504-22.016-9.504-8.992-22.496v-51.008q0-12.992 8.992-22.496t22.016-9.504z m103.008 0q12.992 0 22.496 9.504t9.504 22.496v51.008q0 12.992-9.504 22.496t-22.496 9.504-22.016-9.504-8.992-22.496v-51.008q0-12.992 8.992-22.496t22.016-9.504z m103.008 0q12.992 0 22.016 9.504t8.992 22.496v51.008q0 12.992-8.992 22.496t-22.016 9.504-22.496-9.504-9.504-22.496v-51.008q0-12.992 9.504-22.496t22.496-9.504z"  horiz-adv-x="1024" />

    
    <glyph glyph-name="heart-o" unicode="&#59323;" d="M1000 648Q976.992 704 933.984 747.008 849.984 832 732.992 832q-64 0-121.504-28T512 724.992q-42.016 51.008-99.488 79.008T291.008 832Q174.016 832 90.016 745.984 47.008 702.976 24 646.976-0.992 587.968 0 524.96q0.992-68.992 28.992-130.496t79.008-104.512q4.992-4 8.992-8 14.016-12 112.992-102.016 208-191.008 256.992-235.008 11.008-8.992 24.992-8.992t24.992 8.992q32.992 30.016 180.992 164.992 158.016 144 196 179.008 52 43.008 80.992 104.992t28.992 132q0 64-24 122.016zM568 672q30.016 40 73.504 61.504t91.488 21.504q84.992 0 147.008-62.016 32-32 48.992-74.016 18.016-44 18.016-92.992 0-52.992-22.016-100.992-22.016-46.016-60-76.992l-2.016-2.016q-62.016-55.008-196.992-180-108-98.016-154.016-140-58.016 52.992-202.016 184l-48 44q-76 68.992-94.016 84.992-0.992 2.016-2.016 3.008-6.016 4-8 7.008-39.008 32-60 78.496t-20.992 97.504q-0.992 48.992 18.016 92.992 16.992 42.016 48.992 74.016 62.016 63.008 147.008 63.008 48 0 91.488-22.016T455.936 672q20.992-28 56-28T567.936 672z"  horiz-adv-x="1024" />

    
    <glyph glyph-name="hourglass" unicode="&#59324;" d="M860 8H768v219.008L576 384l192 156.992V760h92q15.008 0 25.504 10.496T896 796t-10.496 25.504T860 832H164q-15.008 0-25.504-10.496T128 796t10.496-25.504 25.504-10.496H256v-219.008L448 384l-192-156.992v-219.008H164q-15.008 0-25.504-10.496T128-28t10.496-25.504 25.504-10.496h696q15.008 0 25.504 10.496t10.496 25.504-10.496 25.504-25.504 10.496zM328 580.992V760h368v-179.008l-182.016-147.008-2.016 2.016-2.016-2.016z m368-572.992h-368v179.008L512 336l184-148.992v-179.008z"  horiz-adv-x="1024" />

    
    <glyph glyph-name="heart" unicode="&#59325;" d="M1000 648Q976.992 704 933.984 747.008 849.984 832 732.992 832q-64 0-121.504-28T512 724.992q-42.016 51.008-99.488 79.008T291.008 832Q174.016 832 90.016 745.984 47.008 702.976 24 646.976-0.992 587.968 0 524.96q0.992-68.992 28.992-130.496t79.008-104.512q4.992-4 8.992-8 14.016-12 112.992-102.016 208-191.008 256.992-235.008 11.008-8.992 24.992-8.992t24.992 8.992q32.992 30.016 180.992 164.992 158.016 144 196 179.008 52 43.008 80.992 104.992t28.992 132q0 64-24 122.016z"  horiz-adv-x="1024" />

    
    <glyph glyph-name="home" unicode="&#59326;" d="M932 453.984L560 812q-20 18.016-48 18.016t-48-18.016L92 453.984q-11.008-10.016-12-24.992t8.992-26.016q10.016-11.008 24.992-12t26.016 8.992L512 757.984l372-358.016q11.008-10.016 26.016-8.992t24.992 12q10.016 11.008 8.992 26.016t-12 24.992z m-99.008-132.992q-15.008 0-25.504-10.496t-10.496-25.504v-276.992h-143.008v240q0 30.016-20.992 51.008T581.984 320h-140q-30.016 0-51.008-20.992t-20.992-51.008v-240H226.976v276.992q0 15.008-10.496 25.504t-25.504 10.496q-15.008 0-25.504-10.496t-10.496-25.504v-276.992q0-30.016 20.992-51.008T226.976-64h570.016q30.016 0 51.008 20.992t20.992 51.008v276.992q0 15.008-10.496 25.504t-25.504 10.496zM442.016 248h140v-240h-140v240z"  horiz-adv-x="1024" />

    
    <glyph glyph-name="idcard" unicode="&#59327;" d="M200 128h176q30.016 0 51.008 20.992T448 200V288q0 40.992-19.008 76t-51.008 56.992Q416 457.984 416 512q0 52.992-37.504 90.496T288 640 197.504 602.496 160 512q0-54.016 38.016-91.008-32-22.016-51.008-56.992T128 288v-88q0-30.016 20.992-51.008T200 128zM288 568q23.008 0 39.488-16.512T344 512t-16.512-39.488T288 456t-39.488 16.512T232 512t16.512 39.488T288 568z m-88-284.992V288q0 36 26.016 62.016t62.016 26.016 62.016-26.016 26.016-62.016v-83.008q0-4.992-4.992-4.992H205.056q-4.992 0-4.992 4.992v78.016zM952 768H72q-30.016 0-51.008-20.992T0 696v-624q0-30.016 20.992-51.008T72 0h880q30.016 0 51.008 20.992T1024 72V696q0 30.016-20.992 51.008T952 768z m0-696H72V696h880v-624z m-404 276h248q15.008 0 25.504 10.496T832 384t-10.496 25.504-25.504 10.496h-248q-15.008 0-25.504-10.496T512 384t10.496-25.504 25.504-10.496z m0-164h184q15.008 0 25.504 10.496t10.496 25.504-10.496 25.504-25.504 10.496h-184q-15.008 0-25.504-10.496t-10.496-25.504 10.496-25.504 25.504-10.496z m0 328h312q15.008 0 25.504 10.496t10.496 25.504-10.496 25.504-25.504 10.496h-312q-15.008 0-25.504-10.496t-10.496-25.504 10.496-25.504 25.504-10.496z"  horiz-adv-x="1024" />

    
    <glyph glyph-name="ie" unicode="&#59328;" d="M878.016 548q24 66.016 22.016 118.016-3.008 56.992-36.992 91.008-32.992 32.992-111.488 27.488t-173.504-47.488q-12.992 0.992-27.008 0.992-64.992 0-126.016-20.992-58.016-20.992-107.008-60-100.992-80-132-203.008l-7.008-28 16.992 22.016q68.992 88.992 150.016 136-22.016-20.992-24.992-24.992-72.992-72.992-126.016-159.008-48.992-80-75.008-160-24.992-75.008-24-135.008t28-88q36.992-36 99.008-36 68.992 0 160 44 78.016-39.008 168-39.008 120.992 0 219.008 70.016t136.992 184l3.008 8h-212.992l-0.992-3.008q-20.992-38.016-58.016-60t-80.512-22.016-80.512 22.016-56.992 60q-18.016 32-19.008 68.992h523.008l0.992 4.992q2.016 20 2.016 43.008 0 100-48.992 186.016zM200.992 221.984q44.992-111.008 146.016-176.992-54.016-23.008-95.008-26.016-44.992-3.008-67.008 20-23.008 23.008-19.008 71.008t35.008 112zM859.008 577.984q-30.016 42.016-70.016 75.008-39.008 32-84.992 52.992 108 42.016 148.992 0.992 36.992-38.016 6.016-128.992z m-456.992-154.976q4.992 56.992 48 96t100.992 39.008 100.512-39.008 48.512-96h-298.016z"  horiz-adv-x="1024" />

    
    <glyph glyph-name="inbox" unicode="&#59329;" d="M884.992 449.984L772.992 736q-4 12-14.016 19.488t-23.008 7.488H280.96q-12.992 0-23.008-8t-14.016-20l-104.992-282.016v-0.992q-2.016-8-0.992-15.008v-371.008q0-24.992 17.504-43.008t42.496-18.016h628q24.992 0 43.008 18.016t18.016 43.008V431.968q0 3.008-0.992 4 0.992 7.008-0.992 14.016z m-296 43.008v-16q0-34.016-21.504-54.496T512 401.984t-55.008 20.512-20.992 54.496l-0.992 16H230.016l79.008 192.992h399.008l82.016-192.992h-200.992zM214.016 416h158.016q18.016-43.008 55.008-67.008t84.992-24q52 0 90.016 27.008 34.016 24 51.008 64h156.992v-334.016H214.048V416z"  horiz-adv-x="1024" />

    
    <glyph glyph-name="info-cirlce-o" unicode="&#59330;" d="M512 896q-139.008 0-256.992-68.512T68.512 640.992 0 384t68.512-256.992 186.496-186.496T512-128t256.992 68.512 186.496 186.496T1024 384t-68.512 256.992-186.496 186.496T512 896z m311.008-823.008q-60.992-60.992-140-94.016-80.992-35.008-171.008-35.008t-171.008 34.016q-79.008 34.016-140 95.008t-94.016 140Q71.968 293.984 71.968 384t34.016 171.008q34.016 79.008 95.008 140t140 94.016Q421.984 824.032 512 824.032t171.008-34.016q79.008-34.016 140-95.008t94.016-140q35.008-80.992 35.008-171.008t-34.016-171.008q-34.016-79.008-95.008-140z m-192.992 116.992h-84.992V540q0 15.008-10.496 25.504T509.024 576h-96q-15.008 0-25.504-10.496t-10.496-25.504q0-14.016 10.496-24.992t25.504-11.008h60v-314.016h-84.992q-15.008 0-25.504-10.496t-10.496-25.504q0-15.008 10.496-25.504t25.504-10.496h242.016q15.008 0 25.504 10.496t10.496 25.504q0 15.008-10.496 25.504t-25.504 10.496zM472.992 675.488q0 14.496 10.496 25.504t25.504 11.008 25.504-11.008 10.496-25.504-10.496-24.992-25.504-10.496-25.504 10.496-10.496 24.992z"  horiz-adv-x="1024" />

    
    </font>
</defs>
</svg>
